<?xml version="1.0" encoding="UTF-8"?>
<svg version="1.1" xmlns="http://www.w3.org/2000/svg" width="225" height="225">
<path d="M0 0 C74.25 0 148.5 0 225 0 C225 74.25 225 148.5 225 225 C150.75 225 76.5 225 0 225 C0 150.75 0 76.5 0 0 Z " fill="#B3E0DB" transform="translate(0,0)"/>
<path d="M0 0 C1.68272807 2.5240921 2.67631263 4.49751548 3.734375 7.2890625 C4.05809082 8.13984375 4.38180664 8.990625 4.71533203 9.8671875 C5.05677246 10.77726562 5.39821289 11.68734375 5.75 12.625 C6.10562012 13.5634375 6.46124023 14.501875 6.82763672 15.46875 C9.27677996 21.96751031 11.58261898 28.50711492 13.83740234 35.07519531 C15.81917783 40.73546253 18.24215123 46.08025505 20.8984375 51.4609375 C22 54 22 54 22 57 C22.598125 57.268125 23.19625 57.53625 23.8125 57.8125 C27.02505789 59.55646 28.63376203 61.01146785 29.921875 64.48828125 C30.19515625 65.42027344 30.4684375 66.35226563 30.75 67.3125 C32.91440944 73.60593669 36.07763556 76.76205003 41.76977539 80.00976562 C44.35500685 81.15762538 46.66630983 81.55944091 49.46484375 81.96484375 C50.51220703 82.12533203 51.55957031 82.28582031 52.63867188 82.45117188 C54.83350626 82.77474426 57.02882172 83.09507052 59.22460938 83.41210938 C60.79758789 83.65477539 60.79758789 83.65477539 62.40234375 83.90234375 C63.35616943 84.04148193 64.30999512 84.18062012 65.29272461 84.32397461 C70.1973545 85.54869462 73.24904734 87.80117751 76 92 C75.38125 92.04125 74.7625 92.0825 74.125 92.125 C73.42375 92.41375 72.7225 92.7025 72 93 C71.28293018 94.98248715 70.61709587 96.98415349 70 99 C69.01 99.66 68.02 100.32 67 101 C64 96.25 64 96.25 64 94 C62.68 94 61.36 94 60 94 C60 98.29 60 102.58 60 107 C60.99 107 61.98 107 63 107 C63 105.02 63 103.04 63 101 C64.5 102.375 64.5 102.375 66 104 C66 104.66 66 105.32 66 106 C66.99 106 67.98 106 69 106 C69.66 104.35 70.32 102.7 71 101 C71.33 101 71.66 101 72 101 C72 102.98 72 104.96 72 107 C73.32 107 74.64 107 76 107 C76 102.71 76 98.42 76 94 C80.62492514 91.68753743 81.47899336 92.02667204 86.25 93.375 C87.32765625 93.67148438 88.4053125 93.96796875 89.515625 94.2734375 C90.33546875 94.51320313 91.1553125 94.75296875 92 95 C91.82210937 96.03060547 91.82210937 96.03060547 91.640625 97.08203125 C91.51171875 97.98308594 91.3828125 98.88414062 91.25 99.8125 C91.04117188 101.15248047 91.04117188 101.15248047 90.828125 102.51953125 C90.76932253 105.06804838 90.76932253 105.06804838 92.46875 106.84765625 C96.09813288 108.4999216 99.39152554 108.02762342 103.25 107.625 C109.07570909 107.06622861 114.19987803 107.14956018 120 108 C122.34186559 108.07916244 124.65603586 108.04883259 127 108 C127.33 108.66 127.66 109.32 128 110 C129.985953 110.90333076 129.985953 110.90333076 132.40234375 111.65625 C133.29244141 111.95660156 134.18253906 112.25695312 135.09960938 112.56640625 C136.03611328 112.87449219 136.97261719 113.18257813 137.9375 113.5 C139.78172834 114.10921986 141.6242716 114.72357168 143.46484375 115.34375 C144.285896 115.61380859 145.10694824 115.88386719 145.95288086 116.16210938 C148 117 148 117 150 119 C153.44318632 120.29781638 156.92756917 121.43356005 160.421875 122.5859375 C164.03372889 124.01332954 166.84846337 125.75017781 170 128 C171.11375 128.70125 172.2275 129.4025 173.375 130.125 C174.24125 130.74375 175.1075 131.3625 176 132 C176 132.66 176 133.32 176 134 C176.556875 134.268125 177.11375 134.53625 177.6875 134.8125 C180.21225334 136.10899496 182.63714484 137.42476323 185 139 C185 139.66 185 140.32 185 141 C185.721875 141.20625 186.44375 141.4125 187.1875 141.625 C190.1708571 143.08353014 191.64227099 144.70481257 193.59375 147.3671875 C195.048811 149.16571146 195.048811 149.16571146 197.4140625 150.875 C200.11319494 153.0930182 201.87128787 155.27324373 203.875 158.125 C204.5659375 159.10339844 205.256875 160.08179688 205.96875 161.08984375 C206.97421875 162.53037109 206.97421875 162.53037109 208 164 C208.5671875 164.78503906 209.134375 165.57007813 209.71875 166.37890625 C213.49749389 171.64597616 216.99381331 177.07310088 220.4375 182.5625 C220.88722168 183.27817139 221.33694336 183.99384277 221.80029297 184.73120117 C225 189.87469608 225 189.87469608 225 191 C150.75 191 76.5 191 0 191 C0 127.97 0 64.94 0 0 Z " fill="#E7F2F2" transform="translate(0,34)"/>
<path d="M0 0 C1.24265625 0.19078125 2.4853125 0.3815625 3.765625 0.578125 C6.80317806 1.04544086 9.83950411 1.51953422 12.875 2 C14.06787411 5.87684087 14.875 8.91621923 14.875 13 C7.78991683 12.46045459 0.82788119 11.58175027 -6.1796875 10.40234375 C-8.87630536 10.03397287 -11.40861793 9.92482337 -14.125 10 C-14.125 11.32 -14.125 12.64 -14.125 14 C-13.35309326 14.11593506 -12.58118652 14.23187012 -11.78588867 14.35131836 C-8.29433879 14.87729828 -4.80341902 15.40734992 -1.3125 15.9375 C-0.09755859 16.11990234 1.11738281 16.30230469 2.36914062 16.49023438 C3.53251953 16.66748047 4.69589844 16.84472656 5.89453125 17.02734375 C6.96807861 17.18968506 8.04162598 17.35202637 9.14770508 17.51928711 C11.875 18 11.875 18 14.875 19 C14.86339844 20.27617188 14.85179687 21.55234375 14.83984375 22.8671875 C14.83046583 24.53645687 14.82136563 26.20572783 14.8125 27.875 C14.79993164 29.13763672 14.79993164 29.13763672 14.78710938 30.42578125 C14.78388672 31.23144531 14.78066406 32.03710938 14.77734375 32.8671875 C14.77210693 33.61081543 14.76687012 34.35444336 14.76147461 35.12060547 C14.75713364 37.09132568 14.75713364 37.09132568 15.875 39 C15.215 39 14.555 39 13.875 39 C13.875 40.32 13.875 41.64 13.875 43 C16.74920123 40.28395285 16.74920123 40.28395285 18.875 37 C19.205 37.99 19.535 38.98 19.875 40 C22.35 39.505 22.35 39.505 24.875 39 C26.73276765 42.13498292 27.07640476 44.37471432 26.875 48 C25.885 48 24.895 48 23.875 48 C24.205 48.66 24.535 49.32 24.875 50 C26.195 49.67 27.515 49.34 28.875 49 C29.875 56.625 29.875 56.625 29.875 60 C30.535 60 31.195 60 31.875 60 C31.875 59.34 31.875 58.68 31.875 58 C35.31015002 57.37542727 38.36564814 57 41.875 57 C41.875 55.35 41.875 53.7 41.875 52 C42.205 52.66 42.535 53.32 42.875 54 C50.795 53.01 50.795 53.01 58.875 52 C58.38 56.95 58.38 56.95 57.875 62 C59.195 62 60.515 62 61.875 62 C62.37 61.01 62.37 61.01 62.875 60 C64.525 60 66.175 60 67.875 60 C68.37 66.435 68.37 66.435 68.875 73 C69.865 73 70.855 73 71.875 73 C71.875 72.34 71.875 71.68 71.875 71 C72.535 71 73.195 71 73.875 71 C73.978125 69.906875 74.08125 68.81375 74.1875 67.6875 C74.875 64 74.875 64 75.9375 62.0625 C79.15072893 60.30040672 82.2592174 60.82217463 85.875 61 C85.875 62.32 85.875 63.64 85.875 65 C83.895 65 81.915 65 79.875 65 C79.3215236 67.07553648 78.875 68.84365964 78.875 71 C80.5765625 70.7215625 80.5765625 70.7215625 82.3125 70.4375 C84.0759375 70.2209375 84.0759375 70.2209375 85.875 70 C86.205 70.33 86.535 70.66 86.875 71 C88.56130119 67.48966871 88.56130119 67.48966871 88.5 63.6875 C88.29375 63.130625 88.0875 62.57375 87.875 62 C89.8125 61.4375 89.8125 61.4375 91.875 61 C92.205 61.33 92.535 61.66 92.875 62 C94.38969448 62.23192865 95.91254562 62.41215238 97.4375 62.5625 C98.67693359 62.68818359 98.67693359 62.68818359 99.94140625 62.81640625 C100.57949219 62.87699219 101.21757812 62.93757813 101.875 63 C102.205 62.34 102.535 61.68 102.875 61 C104.855 61 106.835 61 108.875 61 C108.875 61.66 108.875 62.32 108.875 63 C112.36734244 63.09978121 115.46937148 62.77842938 118.875 62 C118.875 62.66 118.875 63.32 118.875 64 C123.165 64 127.455 64 131.875 64 C132.205 63.01 132.535 62.02 132.875 61 C140.625 60.875 140.625 60.875 142.875 62 C142.875 62.66 142.875 63.32 142.875 64 C143.865 63.67 144.855 63.34 145.875 63 C145.38921457 66.12290635 144.8763988 68.99580359 143.875 72 C145.195 72.33 146.515 72.66 147.875 73 C148.2875 72.360625 148.7 71.72125 149.125 71.0625 C150.875 69 150.875 69 154.875 68 C154.875 97.37 154.875 126.74 154.875 157 C150.30041436 151.28176796 150.30041436 151.28176796 148.3125 148.5 C147.91933594 147.9534375 147.52617187 147.406875 147.12109375 146.84375 C145.6141066 144.6139759 144.25710609 142.30921191 142.875 140 C133.82915847 125.73717001 133.82915847 125.73717001 121.875 114 C120.20833333 112.33333333 118.54166667 110.66666667 116.875 109 C116.215 108.67 115.555 108.34 114.875 108 C114.875 107.34 114.875 106.68 114.875 106 C114.1325 105.731875 113.39 105.46375 112.625 105.1875 C109.98438051 104.04723249 108.01947156 102.90619694 105.875 101 C105.875 100.34 105.875 99.68 105.875 99 C105.153125 98.7525 104.43125 98.505 103.6875 98.25 C100.875 97 100.875 97 98.57421875 95.0859375 C95.74843365 92.9021904 93.18668152 91.68446591 89.875 90.375 C88.864375 89.97023438 87.85375 89.56546875 86.8125 89.1484375 C85.3584375 88.57996094 85.3584375 88.57996094 83.875 88 C81.46716006 87.03903978 79.06070331 86.07486982 76.65625 85.10546875 C69.75747675 82.32942129 62.82063901 79.65632589 55.875 77 C55.875 76.67 55.875 76.34 55.875 76 C55.13894531 76.01160156 54.40289062 76.02320313 53.64453125 76.03515625 C52.66871094 76.04417969 51.69289063 76.05320312 50.6875 76.0625 C49.72457031 76.07410156 48.76164062 76.08570313 47.76953125 76.09765625 C44.875 76 44.875 76 42.48046875 75.453125 C37.82141728 74.64285518 33.13686647 75.59988536 28.46875 76.13671875 C24.19498023 75.97412968 22.75927449 75.09224875 19.875 72 C19.27890118 67.91246521 19.96475814 65.55964749 21.875 62 C21.28332031 61.93941406 20.69164062 61.87882812 20.08203125 61.81640625 C16.63818281 61.45123472 13.26817337 61.08191112 9.875 60.375 C9.215 60.25125 8.555 60.1275 7.875 60 C5.99675109 61.87824891 6.48397603 65.03935276 6.3125 67.5625 C6.22871094 68.76003906 6.14492187 69.95757812 6.05859375 71.19140625 C5.96771484 72.58166016 5.96771484 72.58166016 5.875 74 C4.555 74 3.235 74 1.875 74 C1.545 72.68 1.215 71.36 0.875 70 C0.215 70.99 -0.445 71.98 -1.125 73 C-2.115 73 -3.105 73 -4.125 73 C-4.785 71.68 -5.445 70.36 -6.125 69 C-6.455 70.65 -6.785 72.3 -7.125 74 C-8.115 74 -9.105 74 -10.125 74 C-10.125 69.71 -10.125 65.42 -10.125 61 C-8.805 61 -7.485 61 -6.125 61 C-5.135 62.98 -4.145 64.96 -3.125 67 C-0.76450749 64.85409771 0.49403604 62.85399218 1.875 60 C2.535 59.34 3.195 58.68 3.875 58 C-1.94653181 51.28284791 -10.28667348 51.29994805 -18.60546875 50.40820312 C-26.11687359 49.43365819 -31.88579586 46.74700642 -37 41.0625 C-42.11284523 33.69398775 -41.86527073 25.67304848 -41.125 17 C-39.15931446 9.38164038 -34.71560907 4.72239166 -28.4375 0.1875 C-20.03523663 -4.69863219 -9.07489947 -1.43799264 0 0 Z " fill="#B3DFDC" transform="translate(70.125,67)"/>
<path d="M0 0 C45.54 0 91.08 0 138 0 C134.62615588 6.74768824 134.62615588 6.74768824 130.5625 9.6875 C129.80066406 10.24824219 129.03882813 10.80898437 128.25390625 11.38671875 C127.51011719 11.91910156 126.76632813 12.45148437 126 13 C125.28714844 13.56332031 124.57429688 14.12664063 123.83984375 14.70703125 C122 16 122 16 120 16 C120 16.66 120 17.32 120 18 C114.4429096 21.20601369 109.25025698 24.00500536 103.125 26 C102.11695312 26.33 101.10890625 26.66 100.0703125 27 C99.05710937 27.33 98.04390625 27.66 97 28 C94.99953848 28.66528051 92.99940236 29.33154309 91 30 C91 30.66 91 31.32 91 32 C89.948125 32.598125 88.89625 33.19625 87.8125 33.8125 C86.5416485 34.541635 85.27081464 35.27080075 84 36 C83.0925 36.515625 82.185 37.03125 81.25 37.5625 C78.27817325 39.46116709 76.38834038 40.76437153 75.3125 44.1875 C75.209375 44.785625 75.10625 45.38375 75 46 C74.34 46 73.68 46 73 46 C72.01 49.3 71.02 52.6 70 56 C69.34 56 68.68 56 68 56 C68.04125 57.258125 68.0825 58.51625 68.125 59.8125 C68.2390374 63.29064073 68.05925681 63.91111478 66 67 C65.09121094 66.89171875 65.09121094 66.89171875 64.1640625 66.78125 C61.44529354 66.48009405 58.72523856 66.23519182 56 66 C54.74316406 65.86271484 54.74316406 65.86271484 53.4609375 65.72265625 C46.39111439 65.26255665 41.34002825 67.34167749 36 72 C31.79973598 77.66457625 29.96373171 83.19613586 29.4375 90.1875 C29.31181641 91.81751953 29.31181641 91.81751953 29.18359375 93.48046875 C29.12300781 94.31191406 29.06242187 95.14335938 29 96 C22.47640746 92.14443014 20.21248463 88.40618558 17.5 81.4375 C17.12254639 80.51364502 16.74509277 79.58979004 16.35620117 78.63793945 C13.5036768 71.55628736 10.87030229 64.38794423 8.46850586 57.14086914 C7.23982142 53.43597431 6.00892579 49.86824637 4.234375 46.38671875 C-3.20397264 30.76271283 0 19.24704484 0 0 Z " fill="#91C2DC" transform="translate(0,0)"/>
<path d="M0 0 C1.24265625 0.19078125 2.4853125 0.3815625 3.765625 0.578125 C6.80317806 1.04544086 9.83950411 1.51953422 12.875 2 C14.06787411 5.87684087 14.875 8.91621923 14.875 13 C7.78991683 12.46045459 0.82788119 11.58175027 -6.1796875 10.40234375 C-8.87630536 10.03397287 -11.40861793 9.92482337 -14.125 10 C-14.125 11.32 -14.125 12.64 -14.125 14 C-13.35309326 14.11593506 -12.58118652 14.23187012 -11.78588867 14.35131836 C-8.29433879 14.87729828 -4.80341902 15.40734992 -1.3125 15.9375 C-0.09755859 16.11990234 1.11738281 16.30230469 2.36914062 16.49023438 C3.53251953 16.66748047 4.69589844 16.84472656 5.89453125 17.02734375 C6.96807861 17.18968506 8.04162598 17.35202637 9.14770508 17.51928711 C11.875 18 11.875 18 14.875 19 C15.27929847 32.47661554 12.02789458 41.28646807 5.875 53 C-0.94761965 53.22140713 -7.39526419 52.39941896 -14.125 51.3125 C-15.1665625 51.16361328 -16.208125 51.01472656 -17.28125 50.86132812 C-25.29328794 49.57151141 -31.48552609 47.16873236 -37 41.0625 C-42.11284523 33.69398775 -41.86527073 25.67304848 -41.125 17 C-39.15931446 9.38164038 -34.71560907 4.72239166 -28.4375 0.1875 C-20.03523663 -4.69863219 -9.07489947 -1.43799264 0 0 Z " fill="#3256A4" transform="translate(70.125,67)"/>
<path d="M0 0 C5.25606679 4.30041828 7.8872881 9.6618643 10 16 C10.59471085 24.36026217 10.90076571 32.13904581 5.4765625 38.8984375 C-0.07618649 44.45118649 -6.52033276 46.20687223 -14 48 C-15.23363281 48.2990625 -16.46726563 48.598125 -17.73828125 48.90625 C-23.26690549 50.16726672 -28.30863624 51.17168518 -34 51 C-33.835 49.9275 -33.67 48.855 -33.5 47.75 C-31.61168486 31.92147599 -34.08930248 17.36604628 -43 4 C-43 3.01 -43 2.02 -43 1 C-38.85692637 0.15254288 -34.71017204 -0.6753688 -30.5625 -1.5 C-28.81549805 -1.85771484 -28.81549805 -1.85771484 -27.03320312 -2.22265625 C-8.72144825 -5.83342482 -8.72144825 -5.83342482 0 0 Z " fill="#1D9A89" transform="translate(148,69)"/>
<path d="M0 0 C0 29.37 0 58.74 0 89 C-4.57458564 83.28176796 -4.57458564 83.28176796 -6.5625 80.5 C-6.95566406 79.9534375 -7.34882813 79.406875 -7.75390625 78.84375 C-9.2608934 76.6139759 -10.61789391 74.30921191 -12 72 C-21.04584153 57.73717001 -21.04584153 57.73717001 -33 46 C-34.66666667 44.33333333 -36.33333333 42.66666667 -38 41 C-38.66 40.67 -39.32 40.34 -40 40 C-40 39.34 -40 38.68 -40 38 C-40.763125 37.731875 -41.52625 37.46375 -42.3125 37.1875 C-44.87380884 36.05575888 -46.19692938 35.08776599 -48 33 C-46.54558347 29.29203699 -44.7998024 27.95097102 -41.375 26 C-40.47394531 25.484375 -39.57289063 24.96875 -38.64453125 24.4375 C-35.83509834 22.91036365 -33.00354142 21.4581636 -30.12890625 20.05859375 C-23.38649091 16.70594319 -16.83998782 13.03558446 -10.55859375 8.8828125 C-9 8 -9 8 -7 8 C-6.814375 7.1028125 -6.814375 7.1028125 -6.625 6.1875 C-6 4 -6 4 -4 1 C-1 0 -1 0 0 0 Z " fill="#72BAAD" transform="translate(225,135)"/>
<path d="M0 0 C0.99 0 1.98 0 3 0 C3 0.66 3 1.32 3 2 C2.34 2 1.68 2 1 2 C1 3.32 1 4.64 1 6 C3.87420123 3.28395285 3.87420123 3.28395285 6 0 C6.33 0.99 6.66 1.98 7 3 C8.65 2.67 10.3 2.34 12 2 C13.85776765 5.13498292 14.20140476 7.37471432 14 11 C13.01 11 12.02 11 11 11 C11.495 11.99 11.495 11.99 12 13 C13.32 12.67 14.64 12.34 16 12 C17 19.625 17 19.625 17 23 C17.66 23 18.32 23 19 23 C19 22.34 19 21.68 19 21 C22.05847848 20.45627049 24.88772805 20 28 20 C27.25 24.75 27.25 24.75 25 27 C24.53837573 29.43252661 24.53837573 29.43252661 24.375 32.125 C24.30023438 33.03507812 24.22546875 33.94515625 24.1484375 34.8828125 C24.09945312 35.58148438 24.05046875 36.28015625 24 37 C21.54137599 37.05383848 19.0839245 37.09359038 16.625 37.125 C15.92632812 37.14175781 15.22765625 37.15851563 14.5078125 37.17578125 C12.67102514 37.19344267 10.83398037 37.10303261 9 37 C7 35 7 35 6.75 32.125 C6.99290245 29.08871941 7.57626538 27.61018014 9 25 C8.40832031 24.93941406 7.81664063 24.87882812 7.20703125 24.81640625 C3.76318281 24.45123472 0.39317337 24.08191112 -3 23.375 C-3.66 23.25125 -4.32 23.1275 -5 23 C-6.87824891 24.87824891 -6.39102397 28.03935276 -6.5625 30.5625 C-6.64628906 31.76003906 -6.73007813 32.95757812 -6.81640625 34.19140625 C-6.90728516 35.58166016 -6.90728516 35.58166016 -7 37 C-8.32 37 -9.64 37 -11 37 C-11.33 35.68 -11.66 34.36 -12 33 C-12.66 33.99 -13.32 34.98 -14 36 C-14.99 36 -15.98 36 -17 36 C-17.66 34.68 -18.32 33.36 -19 32 C-19.495 34.475 -19.495 34.475 -20 37 C-20.99 37 -21.98 37 -23 37 C-23 32.71 -23 28.42 -23 24 C-21.68 24 -20.36 24 -19 24 C-18.01 25.98 -17.02 27.96 -16 30 C-13.63950749 27.85409771 -12.38096396 25.85399218 -11 23 C-10.34 22.34 -9.68 21.68 -9 21 C-10.32 19.35 -11.64 17.7 -13 16 C-12.08992188 15.99097656 -11.17984375 15.98195313 -10.2421875 15.97265625 C-6.66300692 15.28709987 -6.66300692 15.28709987 -4.8828125 11.62109375 C-4.27339726 10.2366613 -3.68809918 8.84140864 -3.125 7.4375 C-2.66480469 6.37112305 -2.66480469 6.37112305 -2.1953125 5.28320312 C-1.44266877 3.53095444 -0.71851186 1.76651882 0 0 Z " fill="#B5DEDF" transform="translate(83,104)"/>
<path d="M0 0 C7.75 -0.125 7.75 -0.125 10 1 C10 1.66 10 2.32 10 3 C10.99 2.67 11.98 2.34 13 2 C12.51421457 5.12290635 12.0013988 7.99580359 11 11 C11.99 11 12.98 11 14 11 C14.495 12.98 14.495 12.98 15 15 C13.18823835 16.06375853 11.3755446 17.12592957 9.5625 18.1875 C8.55316406 18.77917969 7.54382813 19.37085938 6.50390625 19.98046875 C0.82193994 23.27753501 -4.94315746 26.42658833 -10.7109375 29.5703125 C-11.48050781 29.99183594 -12.25007812 30.41335937 -13.04296875 30.84765625 C-14.61898125 31.71089928 -16.19717178 32.57017594 -17.77734375 33.42578125 C-18.53917969 33.84472656 -19.30101562 34.26367188 -20.0859375 34.6953125 C-20.7670459 35.06672363 -21.4481543 35.43813477 -22.14990234 35.82080078 C-24.04711908 37.03003235 -25.47562982 38.35349047 -27 40 C-28 37 -28 37 -27.0625 34.8125 C-26.711875 34.214375 -26.36125 33.61625 -26 33 C-25.01 33 -24.02 33 -23 33 C-22.896875 32.443125 -22.79375 31.88625 -22.6875 31.3125 C-21.85821592 28.5230899 -20.65700944 26.3860936 -19 24 C-18.34 24 -17.68 24 -17 24 C-16.9175 23.443125 -16.835 22.88625 -16.75 22.3125 C-15.76104459 19.26322081 -14.15242534 17.34810037 -12 15 C-11.34 15 -10.68 15 -10 15 C-11.83081897 12.70941092 -11.83081897 12.70941092 -14.5625 12.9375 C-15.366875 12.958125 -16.17125 12.97875 -17 13 C-18 12 -18 12 -18.0625 8.9375 C-18.0315625 7.4834375 -18.0315625 7.4834375 -18 6 C-18.66 6 -19.32 6 -20 6 C-20 5.01 -20 4.02 -20 3 C-19.34 3 -18.68 3 -18 3 C-18 2.34 -18 1.68 -18 1 C-16.68 1 -15.36 1 -14 1 C-14 1.66 -14 2.32 -14 3 C-9.71 3 -5.42 3 -1 3 C-0.67 2.01 -0.34 1.02 0 0 Z " fill="#9BD5CE" transform="translate(203,128)"/>
<path d="M0 0 C5.37652894 10.75305787 5.08229248 22.62487299 2 34 C2.59538574 33.87882812 3.19077148 33.75765625 3.80419922 33.6328125 C6.49406424 33.08654036 9.18451998 32.54323471 11.875 32 C12.81214844 31.80921875 13.74929687 31.6184375 14.71484375 31.421875 C15.61074219 31.24140625 16.50664062 31.0609375 17.4296875 30.875 C18.25710449 30.70742187 19.08452148 30.53984375 19.93701172 30.3671875 C22 30 22 30 24 30 C24 30.66 24 31.32 24 32 C16.8251401 35.4717064 8.79693662 35.1237609 1 35 C0.67 35.99 0.34 36.98 0 38 C-4.95 38.495 -4.95 38.495 -10 39 C-10 39.66 -10 40.32 -10 41 C-10.66 41 -11.32 41 -12 41 C-12.33 38.36 -12.66 35.72 -13 33 C-11.515 32.505 -11.515 32.505 -10 32 C-9.67 28.37 -9.34 24.74 -9 21 C-9.99 21 -10.98 21 -12 21 C-12.19406478 19.35492782 -12.38007935 17.70890406 -12.5625 16.0625 C-12.66691406 15.14597656 -12.77132812 14.22945312 -12.87890625 13.28515625 C-12.91886719 12.53105469 -12.95882812 11.77695313 -13 11 C-12 10 -12 10 -8.4375 9.9375 C-7.303125 9.958125 -6.16875 9.97875 -5 10 C-5 10.99 -5 11.98 -5 13 C-4.34 13 -3.68 13 -3 13 C-3 13.99 -3 14.98 -3 16 C-2.34 16 -1.68 16 -1 16 C-1.33 15.01 -1.66 14.02 -2 13 C-1.67 12.67 -1.34 12.34 -1 12 C-1.66 11.34 -2.32 10.68 -3 10 C-2.01 9.67 -1.02 9.34 0 9 C0 6.03 0 3.06 0 0 Z " fill="#B2E1DB" transform="translate(112,86)"/>
<path d="M0 0 C1.423125 -0.061875 2.84625 -0.12375 4.3125 -0.1875 C5.51326172 -0.23970703 5.51326172 -0.23970703 6.73828125 -0.29296875 C9.47851584 0.06198392 10.29171079 0.89366282 12 3 C12.33 2.01 12.66 1.02 13 0 C14.32 0 15.64 0 17 0 C17 1.65 17 3.3 17 5 C17.66 5 18.32 5 19 5 C19.226875 4.360625 19.45375 3.72125 19.6875 3.0625 C21 1 21 1 23.625 0.25 C24.800625 0.12625 24.800625 0.12625 26 0 C25.484375 0.7425 24.96875 1.485 24.4375 2.25 C22.7932769 4.79084553 22.7932769 4.79084553 23.1875 7.0625 C24.03986879 9.09507174 24.95914244 11.0570659 26 13 C23.525 12.505 23.525 12.505 21 12 C20.67 11.01 20.34 10.02 20 9 C19.01 9.495 19.01 9.495 18 10 C17.67 10.99 17.34 11.98 17 13 C15.68 13 14.36 13 13 13 C12.34 12.34 11.68 11.68 11 11 C10.67 11.99 10.34 12.98 10 14 C5.97128525 15.03595522 4.34944269 14.86988854 0 14 C0 9.38 0 4.76 0 0 Z " fill="#CEE3F6" transform="translate(14,128)"/>
<path d="M0 0 C0.680625 -0.01611328 1.36125 -0.03222656 2.0625 -0.04882812 C4.0390625 -0.05078125 4.0390625 -0.05078125 7.375 0.3125 C9.51086678 3.51630017 9.60632175 4.33189967 9.5 8 C9.48195312 8.80824219 9.46390625 9.61648437 9.4453125 10.44921875 C9.42210937 11.06410156 9.39890625 11.67898437 9.375 12.3125 C8.385 12.3125 7.395 12.3125 6.375 12.3125 C6.375 12.9725 6.375 13.6325 6.375 14.3125 C5.715 13.9825 5.055 13.6525 4.375 13.3125 C2.60368572 13.31820472 0.8323657 13.3656516 -0.9375 13.4375 C-5.36802128 13.48976041 -8.10237173 13.24802356 -11.625 10.3125 C-11.955 9.9825 -12.285 9.6525 -12.625 9.3125 C-12.4375 5.875 -12.4375 5.875 -11.625 2.3125 C-8.1805994 -0.31994513 -4.15133277 -0.01988186 0 0 Z " fill="#B2D6EE" transform="translate(121.625,129.6875)"/>
<path d="M0 0 C-0.75 4.75 -0.75 4.75 -3 7 C-3.46162427 9.43252661 -3.46162427 9.43252661 -3.625 12.125 C-3.69976562 13.03507813 -3.77453125 13.94515625 -3.8515625 14.8828125 C-3.90054688 15.58148438 -3.94953125 16.28015625 -4 17 C-6.45862401 17.05383848 -8.9160755 17.09359038 -11.375 17.125 C-12.42300781 17.15013672 -12.42300781 17.15013672 -13.4921875 17.17578125 C-15.32897486 17.19344267 -17.16601963 17.10303261 -19 17 C-21 15 -21 15 -21.25 12 C-21 9 -21 9 -19 7 C-15.875 6.875 -15.875 6.875 -13 7 C-13 5.68 -13 4.36 -13 3 C-11.68 3 -10.36 3 -9 3 C-9 2.34 -9 1.68 -9 1 C-6.04335481 -0.4783226 -3.25770263 -0.06032783 0 0 Z " fill="#3A5897" transform="translate(111,124)"/>
<path d="M0 0 C0 0.99 0 1.98 0 3 C-0.99 3 -1.98 3 -3 3 C-3 5.31 -3 7.62 -3 10 C-4.051875 9.979375 -5.10375 9.95875 -6.1875 9.9375 C-9.83742833 9.84640263 -9.83742833 9.84640263 -12.625 10.6875 C-15.89992628 11.11841135 -17.38112098 9.87062787 -20 8 C-19.74438677 5.6568787 -19.40729228 3.32156597 -19 1 C-13.19510281 -1.90244859 -6.18213823 -1.01162262 0 0 Z " fill="#82ADD4" transform="translate(212,131)"/>
<path d="M0 0 C9.16191918 0.56291453 18.01728306 2.20796488 27 4 C27 4.99 27 5.98 27 7 C27.99 7.33 28.98 7.66 30 8 C29.67 8.66 29.34 9.32 29 10 C24.93615852 9.55308939 20.87425312 9.09047915 16.8125 8.625 C15.66201172 8.49867187 14.51152344 8.37234375 13.32617188 8.2421875 C12.21435547 8.11328125 11.10253906 7.984375 9.95703125 7.8515625 C8.93585205 7.73635254 7.91467285 7.62114258 6.86254883 7.50244141 C4.01306432 7.00229308 1.6362826 6.17309282 -1 5 C-0.67 3.35 -0.34 1.7 0 0 Z " fill="#B0DDE2" transform="translate(56,76)"/>
<path d="M0 0 C1.32 0 2.64 0 4 0 C4.99 1.98 5.98 3.96 7 6 C9.0245738 4.06745228 10.42105792 2.36841312 12 0 C12.99 0 13.98 0 15 0 C15 4.29 15 8.58 15 13 C14.01 13 13.02 13 12 13 C11.67 11.68 11.34 10.36 11 9 C10.01 10.485 10.01 10.485 9 12 C8.01 12 7.02 12 6 12 C5.34 10.68 4.68 9.36 4 8 C3.67 9.65 3.34 11.3 3 13 C2.01 13 1.02 13 0 13 C0 8.71 0 4.42 0 0 Z " fill="#405AA0" transform="translate(60,128)"/>
<path d="M0 0 C1.32 0 2.64 0 4 0 C4 0.66 4 1.32 4 2 C2.46780964 2.90741371 0.89729143 3.75043899 -0.6875 4.5625 C-7.17660096 8.29419262 -9.68788878 13.06366635 -12 20 C-12.22325814 22.05893621 -12.40705759 24.12233653 -12.5625 26.1875 C-12.64628906 27.27417969 -12.73007812 28.36085938 -12.81640625 29.48046875 C-12.87699219 30.31191406 -12.93757813 31.14335938 -13 32 C-13.33 32 -13.66 32 -14 32 C-14 29.03 -14 26.06 -14 23 C-14.66 23 -15.32 23 -16 23 C-16.33 22.34 -16.66 21.68 -17 21 C-19.02463255 20.34786708 -19.02463255 20.34786708 -21 20 C-21.33 18.35 -21.66 16.7 -22 15 C-21.34 14.67 -20.68 14.34 -20 14 C-20 15.32 -20 16.64 -20 18 C-19.01 17.34 -18.02 16.68 -17 16 C-16.01 16 -15.02 16 -14 16 C-13.9071875 14.9171875 -13.9071875 14.9171875 -13.8125 13.8125 C-12.7446249 10.11600926 -10.89180184 8.46861132 -8 6 C-7.34 6 -6.68 6 -6 6 C-6 5.01 -6 4.02 -6 3 C-5.195625 2.690625 -4.39125 2.38125 -3.5625 2.0625 C-1.10919595 1.23664655 -1.10919595 1.23664655 0 0 Z " fill="#8DBAE1" transform="translate(42,64)"/>
<path d="M0 0 C-0.75 4.75 -0.75 4.75 -3 7 C-3.46162427 9.43252661 -3.46162427 9.43252661 -3.625 12.125 C-3.69976562 13.03507813 -3.77453125 13.94515625 -3.8515625 14.8828125 C-3.90054688 15.58148438 -3.94953125 16.28015625 -4 17 C-5.98 17 -7.96 17 -10 17 C-10.08097324 14.72975032 -10.13917704 12.45867925 -10.1875 10.1875 C-10.22230469 8.92292969 -10.25710937 7.65835938 -10.29296875 6.35546875 C-10 3 -10 3 -8.71875 1.0625 C-5.92942218 -0.66181174 -3.1834753 -0.18019672 0 0 Z " fill="#9CD2DC" transform="translate(111,124)"/>
<path d="M0 0 C5.64974655 10.44490958 5.01166054 22.8855385 2 34 C2.59538574 33.87882812 3.19077148 33.75765625 3.80419922 33.6328125 C6.49406424 33.08654036 9.18451998 32.54323471 11.875 32 C12.81214844 31.80921875 13.74929687 31.6184375 14.71484375 31.421875 C15.61074219 31.24140625 16.50664062 31.0609375 17.4296875 30.875 C18.25710449 30.70742187 19.08452148 30.53984375 19.93701172 30.3671875 C22 30 22 30 24 30 C24 30.66 24 31.32 24 32 C16.8251401 35.4717064 8.79693662 35.1237609 1 35 C-0.13409756 31.59770731 0.28472997 29.46856973 1 26 C1.09276686 23.23882164 1.13989066 20.50973567 1.125 17.75 C1.12886719 17.0178125 1.13273437 16.285625 1.13671875 15.53125 C1.45817463 11.97140396 1.45817463 11.97140396 0 9 C-0.07179964 7.48071962 -0.08392007 5.95832518 -0.0625 4.4375 C-0.05347656 3.61121094 -0.04445313 2.78492187 -0.03515625 1.93359375 C-0.02355469 1.29550781 -0.01195313 0.65742187 0 0 Z " fill="#96DED7" transform="translate(112,86)"/>
<path d="M0 0 C0.99 0 1.98 0 3 0 C3 1.65 3 3.3 3 5 C3.66 5 4.32 5 5 5 C5.226875 4.360625 5.45375 3.72125 5.6875 3.0625 C7 1 7 1 9.625 0.25 C10.40875 0.1675 11.1925 0.085 12 0 C11.484375 0.7425 10.96875 1.485 10.4375 2.25 C8.7932769 4.79084553 8.7932769 4.79084553 9.1875 7.0625 C10.03986879 9.09507174 10.95914244 11.0570659 12 13 C10.35 12.67 8.7 12.34 7 12 C6.67 11.01 6.34 10.02 6 9 C5.01 9.495 5.01 9.495 4 10 C3.67 10.99 3.34 11.98 3 13 C2.01 13 1.02 13 0 13 C0 8.71 0 4.42 0 0 Z " fill="#324C88" transform="translate(28,128)"/>
<path d="M0 0 C1.1034375 0.62390625 2.206875 1.2478125 3.34375 1.890625 C8.2665679 4.35203395 13.08143206 5.08055483 18.5 5.75 C19.4178125 5.87503906 20.335625 6.00007813 21.28125 6.12890625 C23.51946932 6.43199845 25.75854305 6.72205934 28 7 C28 7.33 28 7.66 28 8 C23.03926578 9.32286246 18.08888488 9.08893197 13 9 C13 9.66 13 10.32 13 11 C11.68 11 10.36 11 9 11 C9.33 10.01 9.66 9.02 10 8 C9.30132812 7.93941406 8.60265625 7.87882812 7.8828125 7.81640625 C6.97273438 7.73261719 6.06265625 7.64882812 5.125 7.5625 C4.22007813 7.48128906 3.31515625 7.40007812 2.3828125 7.31640625 C0 7 0 7 -2 6 C-1.34 4.02 -0.68 2.04 0 0 Z " fill="#D9EAF3" transform="translate(36,111)"/>
<path d="M0 0 C0 0.99 0 1.98 0 3 C-1.98 3 -3.96 3 -6 3 C-6 3.66 -6 4.32 -6 5 C-5.030625 5.144375 -4.06125 5.28875 -3.0625 5.4375 C0 6 0 6 1 7 C1.25 9.4375 1.25 9.4375 1 12 C-2.8503105 14.56687367 -4.58569763 13.83288724 -9 13 C-9 12.01 -9 11.02 -9 10 C-7.02 10 -5.04 10 -3 10 C-6.465 8.02 -6.465 8.02 -10 6 C-9.625 3.5625 -9.625 3.5625 -9 1 C-6.04335481 -0.4783226 -3.25770263 -0.06032783 0 0 Z " fill="#405893" transform="translate(51,128)"/>
<path d="M0 0 C0 1.32 0 2.64 0 4 C-1.98 4 -3.96 4 -6 4 C-6.5534764 6.07553648 -7 7.84365964 -7 10 C-3.535 9.505 -3.535 9.505 0 9 C0 10.32 0 11.64 0 13 C-3.41832067 13.87445413 -5.48768375 14.16705965 -8.875 13.0625 C-11.27841213 10.72977646 -11.37016833 10.20448171 -11.5 7 C-11.32442282 4.61215033 -11.07635281 3.15270562 -10 1 C-6.72032242 -0.63983879 -3.62861311 -0.17845638 0 0 Z " fill="#395B93" transform="translate(156,128)"/>
<path d="M0 0 C3 0.25 3 0.25 5 2.25 C5 3.57 5 4.89 5 6.25 C3.68 6.58 2.36 6.91 1 7.25 C1.99 7.58 2.98 7.91 4 8.25 C4 8.91 4 9.57 4 10.25 C1.25 11 1.25 11 -2 11.25 C-4.4375 9.625 -4.4375 9.625 -6 7.25 C-5.78476555 2.73007645 -4.7670208 0.39725173 0 0 Z " fill="#476AA5" transform="translate(164,130.75)"/>
<path d="M0 0 C3.0625 0.375 3.0625 0.375 4.9375 2.25 C6.0625 4.375 6.0625 4.375 6.0625 6.375 C4.7425 6.705 3.4225 7.035 2.0625 7.375 C2.7225 7.375 3.3825 7.375 4.0625 7.375 C4.0625 8.365 4.0625 9.355 4.0625 10.375 C2.78375 10.436875 1.505 10.49875 0.1875 10.5625 C-0.53179687 10.59730469 -1.25109375 10.63210937 -1.9921875 10.66796875 C-2.63414063 10.57128906 -3.27609375 10.47460938 -3.9375 10.375 C-5.9375 7.375 -5.9375 7.375 -5.6875 4.8125 C-4.58892251 1.24212316 -3.72145253 0.47507905 0 0 Z " fill="#485E92" transform="translate(82.9375,130.625)"/>
<path d="M0 0 C1.423125 -0.061875 2.84625 -0.12375 4.3125 -0.1875 C5.51326172 -0.23970703 5.51326172 -0.23970703 6.73828125 -0.29296875 C9 0 9 0 10.80078125 1.3515625 C12 3 12 3 11.875 5.5625 C11 8 11 8 8 10 C4.8125 10.125 4.8125 10.125 2 10 C2 8.02 2 6.04 2 4 C2.33 4.99 2.66 5.98 3 7 C4.32 6.67 5.64 6.34 7 6 C7 5.34 7 4.68 7 4 C5.68 3.67 4.36 3.34 3 3 C3 2.34 3 1.68 3 1 C2.34 1 1.68 1 1 1 C1 4.3 1 7.6 1 11 C1.66 11 2.32 11 3 11 C3 11.66 3 12.32 3 13 C2.01 13 1.02 13 0 13 C0 8.71 0 4.42 0 0 Z " fill="#425992" transform="translate(14,128)"/>
<path d="M0 0 C1.65 0 3.3 0 5 0 C3.68 2.64 2.36 5.28 1 8 C-5.73204732 8.25645895 -11.9013607 7.28162548 -18.5 6 C-19.51320313 5.80921875 -20.52640625 5.6184375 -21.5703125 5.421875 C-24.04817439 4.95435389 -26.52458268 4.48026672 -29 4 C-25.66411521 2.18874263 -24.31562928 1.85472364 -20.625 2.875 C-14.34679852 4.32741974 -4.9383839 5.96919195 1 3 C0.67 2.01 0.34 1.02 0 0 Z " fill="#375692" transform="translate(75,112)"/>
<path d="M0 0 C6.8359375 -0.1953125 6.8359375 -0.1953125 9 0 C11 2 11 2 11.1953125 3.9453125 C11.13020833 5.96354167 11.06510417 7.98177083 11 10 C10.01 10 9.02 10 8 10 C7.67 8.02 7.34 6.04 7 4 C6.01 3.67 5.02 3.34 4 3 C4 5.31 4 7.62 4 10 C2.68 10 1.36 10 0 10 C0 6.7 0 3.4 0 0 Z " fill="#305487" transform="translate(171,131)"/>
<path d="M0 0 C0.89203125 0.20367187 1.7840625 0.40734375 2.703125 0.6171875 C3.37859375 0.78476563 4.0540625 0.95234375 4.75 1.125 C4.66621094 1.82367188 4.58242187 2.52234375 4.49609375 3.2421875 C4.39425781 4.15226563 4.29242188 5.06234375 4.1875 6 C4.08308594 6.90492188 3.97867188 7.80984375 3.87109375 8.7421875 C3.55325148 11.14153057 3.55325148 11.14153057 4.75 13.125 C3.1 13.125 1.45 13.125 -0.25 13.125 C-0.25 12.135 -0.25 11.145 -0.25 10.125 C-1.9 10.455 -3.55 10.785 -5.25 11.125 C-5.58 10.465 -5.91 9.805 -6.25 9.125 C-3.61 9.125 -0.97 9.125 1.75 9.125 C0.6854148 6.51556942 0.6854148 6.51556942 -1.25 4.125 C-4.40989415 3.73807419 -6.38879744 3.69439872 -9.25 5.125 C-9.25 3.805 -9.25 2.485 -9.25 1.125 C-5.82794357 -1.03377391 -3.8855015 -0.92025036 0 0 Z " fill="#E1EFF6" transform="translate(87.25,127.875)"/>
<path d="M0 0 C5.49005959 5.29398604 9.82135016 11.04344667 13 18 C13 18.99 13 19.98 13 21 C11.0625 20.1875 11.0625 20.1875 9 19 C8.67 18.01 8.34 17.02 8 16 C7.36578125 15.69707031 6.7315625 15.39414063 6.078125 15.08203125 C2.28392617 13.10648035 1.2893679 8.89496552 0 5 C-0.25 1.9375 -0.25 1.9375 0 0 Z " fill="#CBECE8" transform="translate(208,200)"/>
<path d="M0 0 C0.66 0.99 1.32 1.98 2 3 C-1.01031744 3.93423645 -1.86650268 4.04449911 -5 3 C-5 4.32 -5 5.64 -5 7 C-3.02 6.67 -1.04 6.34 1 6 C1 7.32 1 8.64 1 10 C-5.0546875 10.1953125 -5.0546875 10.1953125 -7 10 C-7.66 9.34 -8.32 8.68 -9 8 C-8.75 4.4375 -8.75 4.4375 -8 1 C-5.21136993 -0.39431504 -3.07921132 -0.25660094 0 0 Z " fill="#3F5E92" transform="translate(118,131)"/>
<path d="M0 0 C-0.99 0.33 -1.98 0.66 -3 1 C-3 1.66 -3 2.32 -3 3 C-1.68 3 -0.36 3 1 3 C1 2.01 1 1.02 1 0 C1.99 0.33 2.98 0.66 4 1 C4 2.32 4 3.64 4 5 C3.01 5.33 2.02 5.66 1 6 C1.66 6.33 2.32 6.66 3 7 C3 7.66 3 8.32 3 9 C-0.38391693 10.06351675 -1.5804634 10.21442982 -4.8125 8.5625 C-5.534375 8.046875 -6.25625 7.53125 -7 7 C-6.74438677 4.6568787 -6.40729228 2.32156597 -6 0 C-3.50907189 -1.24546405 -2.58919267 -0.7767578 0 0 Z " fill="#345C90" transform="translate(199,132)"/>
<path d="M0 0 C3.375 -0.125 3.375 -0.125 7 0 C9 2 9 2 9.1953125 3.9453125 C9.13020833 5.96354167 9.06510417 7.98177083 9 10 C8.01 9.67 7.02 9.34 6 9 C6 8.01 6 7.02 6 6 C4.68 6 3.36 6 2 6 C2.99 7.32 3.98 8.64 5 10 C3.35 10 1.7 10 0 10 C-0.33 8.35 -0.66 6.7 -1 5 C-0.34 4.67 0.32 4.34 1 4 C0.67 2.68 0.34 1.36 0 0 Z " fill="#2D5586" transform="translate(122,131)"/>
<path d="M0 0 C-1.98 0.99 -1.98 0.99 -4 2 C-4 1.34 -4 0.68 -4 0 C-6.4377963 -0.05397335 -8.87439685 -0.09365616 -11.3125 -0.125 C-12.00279297 -0.14175781 -12.69308594 -0.15851563 -13.40429688 -0.17578125 C-17.17135396 -0.21217794 -18.78431704 -0.14378864 -22 2 C-24.1875 1.625 -24.1875 1.625 -26 1 C-25.34 1 -24.68 1 -24 1 C-23.67 -0.32 -23.34 -1.64 -23 -3 C-14.01173724 -4.84374621 -7.97823194 -4.6418804 0 0 Z " fill="#2D9787" transform="translate(148,69)"/>
<path d="M0 0 C0.33 0 0.66 0 1 0 C1 4.29 1 8.58 1 13 C0.67 13 0.34 13 0 13 C-0.33 11.35 -0.66 9.7 -1 8 C-1.99 8.495 -1.99 8.495 -3 9 C-4.33333333 9.66666667 -5.66666667 10.33333333 -7 11 C-7.061875 10.071875 -7.061875 10.071875 -7.125 9.125 C-7.41375 8.42375 -7.7025 7.7225 -8 7 C-10.99615946 5.6954344 -10.99615946 5.6954344 -14 5 C-14 4.34 -14 3.68 -14 3 C-5.69230769 1.76923077 -5.69230769 1.76923077 -2 3 C-2.66 3 -3.32 3 -4 3 C-3.67 3.66 -3.34 4.32 -3 5 C-2.525625 4.175 -2.05125 3.35 -1.5625 2.5 C-1.046875 1.675 -0.53125 0.85 0 0 Z " fill="#D7E7F0" transform="translate(59,128)"/>
<path d="M0 0 C2 1 2 1 2.81640625 2.890625 C3.06261719 3.66921875 3.30882813 4.4478125 3.5625 5.25 C3.81128906 6.01828125 4.06007813 6.7865625 4.31640625 7.578125 C5.51591616 11.82781724 6.13583447 15.88967055 6.31640625 20.30078125 C6.35830078 21.27724609 6.40019531 22.25371094 6.44335938 23.25976562 C6.48267578 24.26716797 6.52199219 25.27457031 6.5625 26.3125 C6.60568359 27.33923828 6.64886719 28.36597656 6.69335938 29.42382812 C6.79906825 31.94909569 6.90116468 34.47445562 7 37 C6.34 37 5.68 37 5 37 C4.94054199 36.04130005 4.94054199 36.04130005 4.87988281 35.06323242 C4.1859147 19.56652135 4.1859147 19.56652135 -0.29296875 4.890625 C-1 3 -1 3 0 0 Z " fill="#2B9283" transform="translate(111,79)"/>
<path d="M0 0 C0.33 0 0.66 0 1 0 C0.125 6.75 0.125 6.75 -1 9 C-1.99 9 -2.98 9 -4 9 C-4 9.66 -4 10.32 -4 11 C-3.01 11 -2.02 11 -1 11 C-1.15339844 11.52078125 -1.30679688 12.0415625 -1.46484375 12.578125 C-2.13982511 15.63278515 -2.34411118 18.63015971 -2.5625 21.75 C-2.64628906 22.92046875 -2.73007813 24.0909375 -2.81640625 25.296875 C-2.87699219 26.18890625 -2.93757813 27.0809375 -3 28 C-3.33 28 -3.66 28 -4 28 C-4 23.71 -4 19.42 -4 15 C-4.99 14.67 -5.98 14.34 -7 14 C-6.34 13.34 -5.68 12.68 -5 12 C-6.32 10.35 -7.64 8.7 -9 7 C-8.071875 6.95875 -7.14375 6.9175 -6.1875 6.875 C-2.71052362 6.31140969 -2.71052362 6.31140969 -1.125 2.9375 C-0.75375 1.968125 -0.3825 0.99875 0 0 Z " fill="#BED3E5" transform="translate(79,113)"/>
<path d="M0 0 C6.57692308 0.57692308 6.57692308 0.57692308 8 2 C8.04080783 3.99958364 8.04254356 6.00045254 8 8 C7.443125 7.835 6.88625 7.67 6.3125 7.5 C3.81308751 6.95958649 1.54954338 6.92917935 -1 7 C-1.625 4.625 -1.625 4.625 -2 2 C-1.34 1.34 -0.68 0.68 0 0 Z " fill="#B5DFEF" transform="translate(150,131)"/>
<path d="M0 0 C1.32 0 2.64 0 4 0 C4 0.66 4 1.32 4 2 C4.66 2 5.32 2 6 2 C6 2.99 6 3.98 6 5 C5.01 5 4.02 5 3 5 C3 6.65 3 8.3 3 10 C3.99 10 4.98 10 6 10 C6 10.66 6 11.32 6 12 C4.33388095 12.042721 2.66617115 12.04063832 1 12 C0 11 0 11 -0.0625 7.9375 C-0.041875 6.968125 -0.02125 5.99875 0 5 C-0.66 5 -1.32 5 -2 5 C-2 4.01 -2 3.02 -2 2 C-1.34 2 -0.68 2 0 2 C0 1.34 0 0.68 0 0 Z " fill="#3E619A" transform="translate(185,129)"/>
<path d="M0 0 C1.32 0 2.64 0 4 0 C4 4.62 4 9.24 4 14 C2.68 14 1.36 14 0 14 C0 9.38 0 4.76 0 0 Z " fill="#3F6392" transform="translate(133,127)"/>
<path d="M0 0 C0.66666667 2 1.33333333 4 2 6 C2.94875 6.12375 3.8975 6.2475 4.875 6.375 C8 7 8 7 10 9 C5.25 10.125 5.25 10.125 3 9 C2.67 10.32 2.34 11.64 2 13 C0.68 12.67 -0.64 12.34 -2 12 C-1.01 12 -0.02 12 1 12 C0.319375 11.2575 -0.36125 10.515 -1.0625 9.75 C-3 7 -3 7 -2.875 4.875 C-2 3 -2 3 0 0 Z " fill="#C3DAEB" transform="translate(39,129)"/>
<path d="M0 0 C1.32 0 2.64 0 4 0 C4 0.99 4 1.98 4 3 C4.99 3 5.98 3 7 3 C7 4.32 7 5.64 7 7 C6.01 7 5.02 7 4 7 C4 7.66 4 8.32 4 9 C2.68 9 1.36 9 0 9 C0 8.34 0 7.68 0 7 C-0.66 7 -1.32 7 -2 7 C-2 5.68 -2 4.36 -2 3 C-1.34 3 -0.68 3 0 3 C0 2.01 0 1.02 0 0 Z " fill="#3A5C94" transform="translate(90,108)"/>
<path d="M0 0 C5.23435005 4.27293882 9.67106815 8.81580806 14 14 C13.67 14.66 13.34 15.32 13 16 C11.02 15.01 9.04 14.02 7 13 C7 12.01 7 11.02 7 10 C6.01 10 5.02 10 4 10 C2.95374591 8.70264493 1.95298777 7.36733028 1 6 C0.34 5.67 -0.32 5.34 -1 5 C-0.67 3.35 -0.34 1.7 0 0 Z " fill="#C3E7E1" transform="translate(190,178)"/>
<path d="M0 0 C1.33855056 0.78281305 2.67073644 1.57651877 4 2.375 C5.11375 3.03628906 5.11375 3.03628906 6.25 3.7109375 C6.8275 4.13632813 7.405 4.56171875 8 5 C8 5.66 8 6.32 8 7 C10.475 7.99 10.475 7.99 13 9 C12.01 9.495 12.01 9.495 11 10 C11.33 10.99 11.66 11.98 12 13 C11.34 13 10.68 13 10 13 C10 11.68 10 10.36 10 9 C6.7 8.67 3.4 8.34 0 8 C-1.09658936 4.71023192 -0.79953138 3.28696233 0 0 Z " fill="#CFEBE7" transform="translate(177,168)"/>
<path d="M0 0 C0 3.3 0 6.6 0 10 C-0.99 10.495 -0.99 10.495 -2 11 C-2 10.34 -2 9.68 -2 9 C-3.98 9 -5.96 9 -8 9 C-8.33 8.34 -8.66 7.68 -9 7 C-6.69 7 -4.38 7 -2 7 C-2.66 5.35 -3.32 3.7 -4 2 C-6.97 2 -9.94 2 -13 2 C-13 1.01 -13 0.02 -13 -1 C-8.38182791 -2.5393907 -4.71760993 -1.04155025 0 0 Z " fill="#B0D7F2" transform="translate(171,130)"/>
<path d="M0 0 C1.85772162 0.08984301 3.71247985 0.24611861 5.5625 0.4375 C7.08037109 0.59025391 7.08037109 0.59025391 8.62890625 0.74609375 C9.80259766 0.87177734 9.80259766 0.87177734 11 1 C9.68 1.99 8.36 2.98 7 4 C7.33 4.99 7.66 5.98 8 7 C5.36 6.67 2.72 6.34 0 6 C-0.38218767 4.34385343 -0.71395102 2.67542976 -1 1 C-0.67 0.67 -0.34 0.34 0 0 Z " fill="#97C2E6" transform="translate(56,76)"/>
<path d="M0 0 C1.98 0 3.96 0 6 0 C6 4.29 6 8.58 6 13 C7.65 13 9.3 13 11 13 C10.01 14.485 10.01 14.485 9 16 C6.36 15.67 3.72 15.34 1 15 C1 14.34 1 13.68 1 13 C1.99 13 2.98 13 4 13 C3.85831863 11.56208484 3.71148957 10.1246763 3.5625 8.6875 C3.48128906 7.88699219 3.40007812 7.08648437 3.31640625 6.26171875 C3.04734307 3.83912821 3.04734307 3.83912821 2 1 C1.34 0.67 0.68 0.34 0 0 Z " fill="#B5DEEE" transform="translate(127,129)"/>
<path d="M0 0 C0.99 0 1.98 0 3 0 C3 0.99 3 1.98 3 3 C3.99 3.33 4.98 3.66 6 4 C5.67 4.66 5.34 5.32 5 6 C2.24874911 5.71766639 -0.50061337 5.42452667 -3.25 5.125 C-4.02730469 5.04636719 -4.80460937 4.96773438 -5.60546875 4.88671875 C-6.35957031 4.80292969 -7.11367187 4.71914062 -7.890625 4.6328125 C-8.58188477 4.55949707 -9.27314453 4.48618164 -9.98535156 4.41064453 C-12 4 -12 4 -16 2 C-10.72 2 -5.44 2 0 2 C0 1.34 0 0.68 0 0 Z " fill="#B1D9F1" transform="translate(80,80)"/>
<path d="M0 0 C2.31 0 4.62 0 7 0 C7 0.66 7 1.32 7 2 C8.65 2 10.3 2 12 2 C11.67 3.32 11.34 4.64 11 6 C11.66 6 12.32 6 13 6 C13.33 8.31 13.66 10.62 14 13 C13.01 13.495 13.01 13.495 12 14 C11.34 13.67 10.68 13.34 10 13 C9.40644386 10.35139573 9.25790731 7.70802678 9 5 C6.03 4.01 3.06 3.02 0 2 C0 1.34 0 0.68 0 0 Z " fill="#B3DCF0" transform="translate(172,128)"/>
<path d="M0 0 C0.66 0 1.32 0 2 0 C1.67 1.65 1.34 3.3 1 5 C1.59538574 4.87882812 2.19077148 4.75765625 2.80419922 4.6328125 C5.49406424 4.08654036 8.18451998 3.54323471 10.875 3 C11.81214844 2.80921875 12.74929687 2.6184375 13.71484375 2.421875 C14.61074219 2.24140625 15.50664062 2.0609375 16.4296875 1.875 C17.67081299 1.62363281 17.67081299 1.62363281 18.93701172 1.3671875 C21 1 21 1 23 1 C23 1.66 23 2.32 23 3 C15.8251401 6.4717064 7.79693662 6.1237609 0 6 C-1 3 -1 3 0 0 Z " fill="#9FE4DC" transform="translate(113,115)"/>
<path d="M0 0 C2.31 0 4.62 0 7 0 C7 0.99 7 1.98 7 3 C6.01 3 5.02 3 4 3 C4 5.31 4 7.62 4 10 C2.68 10 1.36 10 0 10 C0 6.7 0 3.4 0 0 Z " fill="#305F8E" transform="translate(205,131)"/>
<path d="M0 0 C0.99 0.33 1.98 0.66 3 1 C-0.75 7.875 -0.75 7.875 -3 9 C-3.68729254 11.11846285 -3.68729254 11.11846285 -4.125 13.5625 C-4.29257812 14.38878906 -4.46015625 15.21507813 -4.6328125 16.06640625 C-4.75398438 16.70449219 -4.87515625 17.34257813 -5 18 C-5.66 18 -6.32 18 -7 18 C-6.63897024 11.38112113 -4.85699333 4.85699333 0 0 Z " fill="#395F9F" transform="translate(36,71)"/>
<path d="M0 0 C2.125 0.375 2.125 0.375 4 1 C2.68 1.33 1.36 1.66 0 2 C0 3.093125 0 4.18625 0 5.3125 C0 7.54166667 0 9.77083333 0 12 C-2.45779976 12.22126178 -4.91527648 12.42750395 -7.375 12.625 C-8.42300781 12.72167969 -8.42300781 12.72167969 -9.4921875 12.8203125 C-11.32369111 12.96119739 -13.16312748 12.98761659 -15 13 C-15.66 12.34 -16.32 11.68 -17 11 C-14.03 11 -11.06 11 -8 11 C-8 9.02 -8 7.04 -8 5 C-7.67 5 -7.34 5 -7 5 C-7 6.98 -7 8.96 -7 11 C-5.35 11 -3.7 11 -2 11 C-2.02320312 10.37351563 -2.04640625 9.74703125 -2.0703125 9.1015625 C-2.08835937 8.28429687 -2.10640625 7.46703125 -2.125 6.625 C-2.14820312 5.81289062 -2.17140625 5.00078125 -2.1953125 4.1640625 C-2 2 -2 2 0 0 Z " fill="#C1DCEF" transform="translate(110,130)"/>
<path d="M0 0 C0.66 0 1.32 0 2 0 C2.33 2.31 2.66 4.62 3 7 C4.32 6.67 5.64 6.34 7 6 C7 6.66 7 7.32 7 8 C7.66 8 8.32 8 9 8 C9 6.02 9 4.04 9 2 C9.33 2 9.66 2 10 2 C10 4.31 10 6.62 10 9 C8.54207116 9.05399736 7.08357288 9.09279177 5.625 9.125 C4.81289062 9.14820313 4.00078125 9.17140625 3.1640625 9.1953125 C1 9 1 9 -1 7 C-1.1875 3.9375 -1.1875 3.9375 -1 1 C-0.67 0.67 -0.34 0.34 0 0 Z " fill="#324B80" transform="translate(91,132)"/>
<path d="M0 0 C6.65860882 -0.24661514 13.92560498 -0.03719751 20 3 C19.67 3.99 19.34 4.98 19 6 C18.030625 5.690625 17.06125 5.38125 16.0625 5.0625 C12.38921506 3.98520258 8.82884826 3.64806695 5.015625 3.44140625 C2.53912967 2.89907297 1.60913475 1.90957447 0 0 Z " fill="#ACD9E9" transform="translate(65,65)"/>
<path d="M0 0 C0.33 0 0.66 0 1 0 C1.33 4.29 1.66 8.58 2 13 C2.99 13 3.98 13 5 13 C5 12.34 5 11.68 5 11 C6.32 11.66 7.64 12.32 9 13 C9 14.32 9 15.64 9 17 C4.18061476 17.23509196 0.53701494 16.45184478 -4 15 C-2.68 14.67 -1.36 14.34 0 14 C0 9.38 0 4.76 0 0 Z " fill="#AAD5DB" transform="translate(137,127)"/>
<path d="M0 0 C0.99 0 1.98 0 3 0 C3 0.66 3 1.32 3 2 C6.465 1.505 6.465 1.505 10 1 C10 2.32 10 3.64 10 5 C6.2983569 5.94693195 4.60887535 6.30443767 1.125 4.5625 C0.42375 4.046875 -0.2775 3.53125 -1 3 C-0.67 2.01 -0.34 1.02 0 0 Z " fill="#43669F" transform="translate(146,136)"/>
<path d="M0 0 C2 1 2 1 2.8515625 3.28515625 C3.10679688 4.20167969 3.36203125 5.11820312 3.625 6.0625 C3.88539062 6.98160156 4.14578125 7.90070313 4.4140625 8.84765625 C4.60742188 9.55792969 4.80078125 10.26820312 5 11 C4.01 11.33 3.02 11.66 2 12 C1.67 11.34 1.34 10.68 1 10 C0.34 10.99 -0.32 11.98 -1 13 C-2.20577428 8.05632546 -1.6290678 4.79137588 0 0 Z " fill="#DEF0F5" transform="translate(27,95)"/>
<path d="M0 0 C2.97 0 5.94 0 9 0 C9.66 1.32 10.32 2.64 11 4 C8.36 3.67 5.72 3.34 3 3 C3 2.34 3 1.68 3 1 C2.34 1 1.68 1 1 1 C1 4.3 1 7.6 1 11 C1.66 11 2.32 11 3 11 C3 11.66 3 12.32 3 13 C2.01 13 1.02 13 0 13 C0 8.71 0 4.42 0 0 Z " fill="#395086" transform="translate(14,128)"/>
<path d="M0 0 C4.29 0.33 8.58 0.66 13 1 C13 1.66 13 2.32 13 3 C12.34 3 11.68 3 11 3 C11 3.66 11 4.32 11 5 C8.125 5.125 8.125 5.125 5 5 C4.34 4.34 3.68 3.68 3 3 C3 2.67 3 2.34 3 2 C2.01 1.67 1.02 1.34 0 1 C0 0.67 0 0.34 0 0 Z " fill="#2F539C" transform="translate(61,67)"/>
<path d="M0 0 C1.65 0 3.3 0 5 0 C4.835 0.53625 4.67 1.0725 4.5 1.625 C3.90339788 4.45886009 3.9343632 7.1119806 4 10 C2.68 10 1.36 10 0 10 C0 6.7 0 3.4 0 0 Z " fill="#385B96" transform="translate(171,131)"/>
<path d="M0 0 C0.66 0 1.32 0 2 0 C2 0.66 2 1.32 2 2 C3.65 2.33 5.3 2.66 7 3 C6.67 3.99 6.34 4.98 6 6 C4.68 6 3.36 6 2 6 C1.67 6.99 1.34 7.98 1 9 C1.66 9 2.32 9 3 9 C3 10.32 3 11.64 3 13 C1.68 12.67 0.36 12.34 -1 12 C-0.01 12 0.98 12 2 12 C2 11.34 2 10.68 2 10 C1.34 10 0.68 10 0 10 C0 6.7 0 3.4 0 0 Z " fill="#849FCB" transform="translate(15,129)"/>
<path d="M0 0 C0.99 0.33 1.98 0.66 3 1 C3.33 3.31 3.66 5.62 4 8 C5.32 8 6.64 8 8 8 C8 8.66 8 9.32 8 10 C8.66 10.33 9.32 10.66 10 11 C4.64847115 10.67566492 1.71719957 7.50295176 -2 4 C-1.34 2.68 -0.68 1.36 0 0 Z " fill="#37528E" transform="translate(35,104)"/>
<path d="M0 0 C1.32 0.33 2.64 0.66 4 1 C4 2.98 4 4.96 4 7 C4.99 7.33 5.98 7.66 7 8 C3.37 8 -0.26 8 -4 8 C-2.68 7.67 -1.36 7.34 0 7 C0 4.69 0 2.38 0 0 Z " fill="#8BB3CE" transform="translate(175,134)"/>
<path d="M0 0 C1.84765625 0.33984375 1.84765625 0.33984375 4.0625 0.9375 C5.16271484 1.22947266 5.16271484 1.22947266 6.28515625 1.52734375 C7.13400391 1.76130859 7.13400391 1.76130859 8 2 C8 2.33 8 2.66 8 3 C7.01 3.33 6.02 3.66 5 4 C5.66 4 6.32 4 7 4 C7 4.99 7 5.98 7 7 C4.69 7 2.38 7 0 7 C-0.38133299 5.0085944 -0.71325582 3.00720923 -1 1 C-0.67 0.67 -0.34 0.34 0 0 Z " fill="#3B548B" transform="translate(80,134)"/>
<path d="M0 0 C0.33 0 0.66 0 1 0 C1 1.65 1 3.3 1 5 C2.0828125 5.1546875 2.0828125 5.1546875 3.1875 5.3125 C6.27793421 6.06793947 8.41743841 7.15531315 11 9 C11 9.66 11 10.32 11 11 C9.35 10.67 7.7 10.34 6 10 C5.67 9.01 5.34 8.02 5 7 C3.35 7.66 1.7 8.32 0 9 C0 6.03 0 3.06 0 0 Z " fill="#41559A" transform="translate(29,130)"/>
<path d="M0 0 C0 3 0 3 -2 5.1875 C-2.66 5.785625 -3.32 6.38375 -4 7 C-2.02 7.66 -0.04 8.32 2 9 C2 9.33 2 9.66 2 10 C-1.96 10 -5.92 10 -10 10 C-6.66666667 6.66666667 -3.33333333 3.33333333 0 0 Z " fill="#9CCCE6" transform="translate(56,55)"/>
<path d="M0 0 C1.65 0 3.3 0 5 0 C5 0.66 5 1.32 5 2 C5.7425 1.773125 6.485 1.54625 7.25 1.3125 C10 1 10 1 12.3125 2.4375 C13.1478125 3.2109375 13.1478125 3.2109375 14 4 C13.67 5.32 13.34 6.64 13 8 C11.96875 7.401875 10.9375 6.80375 9.875 6.1875 C6.63992683 4.33606301 3.35082164 2.63454714 0 1 C0 0.67 0 0.34 0 0 Z " fill="#9BDED6" transform="translate(138,64)"/>
<path d="M0 0 C0.89203125 0.01804687 1.7840625 0.03609375 2.703125 0.0546875 C3.71632813 0.08949219 3.71632813 0.08949219 4.75 0.125 C4.75 0.455 4.75 0.785 4.75 1.125 C3.6053125 1.2796875 3.6053125 1.2796875 2.4375 1.4375 C-0.29354896 1.8848463 -0.29354896 1.8848463 -1.8125 3.75 C-2.286875 4.20375 -2.76125 4.6575 -3.25 5.125 C-4.59061543 4.82228039 -5.92405895 4.48662029 -7.25 4.125 C-9.46771064 4.98290183 -9.46771064 4.98290183 -11.25 6.125 C-10.3047226 3.76180651 -9.66996722 2.39497892 -7.5 1 C-4.84738096 -0.03157407 -2.83645051 -0.07464343 0 0 Z " fill="#2D5599" transform="translate(49.25,65.875)"/>
<path d="M0 0 C0.33 3.3 0.66 6.6 1 10 C-2.23475448 8.38262276 -3.70572021 7.52370777 -6 5 C-5 2 -5 2 -4 1 C-1 0 -1 0 0 0 Z " fill="#ECFAFB" transform="translate(59,134)"/>
<path d="M0 0 C3.375 -0.1875 3.375 -0.1875 7 0 C7.66 0.99 8.32 1.98 9 3 C7 5 7 5 3.875 5.125 C2.451875 5.063125 2.451875 5.063125 1 5 C0.67 3.35 0.34 1.7 0 0 Z " fill="#406298" transform="translate(122,131)"/>
<path d="M0 0 C0.99 0 1.98 0 3 0 C3 0.66 3 1.32 3 2 C3.66 2 4.32 2 5 2 C5 2.99 5 3.98 5 5 C4.34 5 3.68 5 3 5 C3 5.66 3 6.32 3 7 C2.01 7 1.02 7 0 7 C0 6.34 0 5.68 0 5 C-0.66 5 -1.32 5 -2 5 C-2 4.01 -2 3.02 -2 2 C-1.34 2 -0.68 2 0 2 C0 1.34 0 0.68 0 0 Z " fill="#52A693" transform="translate(104,97)"/>
<path d="M0 0 C0.33 0.99 0.66 1.98 1 3 C2.98 2.67 4.96 2.34 7 2 C7 3.32 7 4.64 7 6 C4.36 6 1.72 6 -1 6 C-1 3 -1 3 0 0 Z " fill="#476897" transform="translate(112,135)"/>
<path d="M0 0 C1.32 0.33 2.64 0.66 4 1 C3.34 1 2.68 1 2 1 C2 3.97 2 6.94 2 10 C-0.475 9.01 -0.475 9.01 -3 8 C-3 6.35 -3 4.7 -3 3 C-2.01 3 -1.02 3 0 3 C0 2.01 0 1.02 0 0 Z " fill="#A2C9E9" transform="translate(191,131)"/>
<path d="M0 0 C2.8125 0.125 2.8125 0.125 6 1 C7.9375 3.9375 7.9375 3.9375 9 7 C8.67 7.66 8.34 8.32 8 9 C6.84775972 8.07038578 5.70340824 7.1309875 4.5625 6.1875 C3.60537109 5.40439453 3.60537109 5.40439453 2.62890625 4.60546875 C1 3 1 3 0 0 Z " fill="#80BCB0" transform="translate(191,178)"/>
<path d="M0 0 C0.99 0 1.98 0 3 0 C3 3.3 3 6.6 3 10 C2.01 10 1.02 10 0 10 C0 6.7 0 3.4 0 0 Z " fill="#2E4F8D" transform="translate(104,131)"/>
<path d="M0 0 C2.97 0 5.94 0 9 0 C9 0.99 9 1.98 9 3 C2.25 4.125 2.25 4.125 0 3 C0 2.01 0 1.02 0 0 Z " fill="#4A5B91" transform="translate(42,138)"/>
<path d="M0 0 C2.00720923 0.28674418 4.0085944 0.61866701 6 1 C5.67 1.99 5.34 2.98 5 4 C2.69 4.33 0.38 4.66 -2 5 C-1.125 1.125 -1.125 1.125 0 0 Z " fill="#ABD5E2" transform="translate(150,131)"/>
<path d="M0 0 C0.33 0 0.66 0 1 0 C0.125 6.75 0.125 6.75 -1 9 C-2.8125 9.8125 -2.8125 9.8125 -5 10 C-7.25 8.5625 -7.25 8.5625 -9 7 C-8.071875 6.95875 -7.14375 6.9175 -6.1875 6.875 C-2.71052362 6.31140969 -2.71052362 6.31140969 -1.125 2.9375 C-0.75375 1.968125 -0.3825 0.99875 0 0 Z " fill="#ADD5EB" transform="translate(79,113)"/>
<path d="M0 0 C0 2.64 0 5.28 0 8 C-1.98 6.68 -3.96 5.36 -6 4 C-5.67 3.01 -5.34 2.02 -5 1 C-2 0 -2 0 0 0 Z " fill="#AACDE1" transform="translate(28,87)"/>
<path d="M0 0 C3 1 3 1 4.38671875 3.21484375 C4.81597656 4.11332031 5.24523437 5.01179688 5.6875 5.9375 C6.12449219 6.83339844 6.56148437 7.72929688 7.01171875 8.65234375 C8 11 8 11 8 13 C7.34 13 6.68 13 6 13 C5.87625 12.360625 5.7525 11.72125 5.625 11.0625 C5.41875 10.381875 5.2125 9.70125 5 9 C4.34 8.67 3.68 8.34 3 8 C2.375 5.4375 2.375 5.4375 2 3 C1.34 3 0.68 3 0 3 C0 2.01 0 1.02 0 0 Z " fill="#34998B" transform="translate(149,71)"/>
<path d="M0 0 C4.62 0 9.24 0 14 0 C14 0.33 14 0.66 14 1 C12.43883181 1.33951619 10.87598662 1.67132544 9.3125 2 C8.00732422 2.2784375 8.00732422 2.2784375 6.67578125 2.5625 C4.06287036 2.98972047 1.64186962 3.07616201 -1 3 C-0.67 2.01 -0.34 1.02 0 0 Z " fill="#95E1D5" transform="translate(108,67)"/>
<path d="M0 0 C0 2.31 0 4.62 0 7 C-0.99 7.495 -0.99 7.495 -2 8 C-2 7.34 -2 6.68 -2 6 C-3.65 6 -5.3 6 -7 6 C-3.76923077 0 -3.76923077 0 0 0 Z " fill="#7AC1B3" transform="translate(225,135)"/>
<path d="M0 0 C0.66 0 1.32 0 2 0 C2.66 2.31 3.32 4.62 4 7 C2.35 7 0.7 7 -1 7 C-1 6.01 -1 5.02 -1 4 C-2.65 4.33 -4.3 4.66 -6 5 C-6.33 4.34 -6.66 3.68 -7 3 C-4.36 3 -1.72 3 1 3 C0.67 2.01 0.34 1.02 0 0 Z " fill="#C2D9F2" transform="translate(88,134)"/>
<path d="M0 0 C1.134375 0.020625 2.26875 0.04125 3.4375 0.0625 C2.4475 0.3925 1.4575 0.7225 0.4375 1.0625 C0.4375 1.7225 0.4375 2.3825 0.4375 3.0625 C-0.2225 3.0625 -0.8825 3.0625 -1.5625 3.0625 C-1.8925 4.3825 -2.2225 5.7025 -2.5625 7.0625 C-3.2225 7.0625 -3.8825 7.0625 -4.5625 7.0625 C-4.60504356 5.06295254 -4.60330783 3.06208364 -4.5625 1.0625 C-3.5625 0.0625 -3.5625 0.0625 0 0 Z " fill="#A5E3D8" transform="translate(103.5625,95.9375)"/>
<path d="M0 0 C0.66 0 1.32 0 2 0 C2 0.99 2 1.98 2 3 C3.65 3.33 5.3 3.66 7 4 C7 4.99 7 5.98 7 7 C6.01 7.33 5.02 7.66 4 8 C1.10067643 5.60490662 0.49831724 3.68754757 0 0 Z " fill="#97BCD2" transform="translate(19,81)"/>
<path d="M0 0 C0.99 0 1.98 0 3 0 C2.34 2.97 1.68 5.94 1 9 C1.66 9 2.32 9 3 9 C3 10.32 3 11.64 3 13 C2.01 13 1.02 13 0 13 C0 8.71 0 4.42 0 0 Z " fill="#384F81" transform="translate(60,128)"/>
<path d="M0 0 C0.66 0 1.32 0 2 0 C2.05406122 1.93719378 2.09282025 3.87481921 2.125 5.8125 C2.14820312 6.89144531 2.17140625 7.97039062 2.1953125 9.08203125 C2 12 2 12 0 15 C-1 14 -1 14 -1.125 11.6875 C-1.01238161 9.26620466 -0.58321531 7.33286123 0 5 C0.03786901 3.33376361 0.04627845 1.66602403 0 0 Z " fill="#31548A" transform="translate(83,86)"/>
<path d="M0 0 C1.70884005 1.62339805 3.37446717 3.29319053 5 5 C5 5.66 5 6.32 5 7 C4.236875 6.649375 3.47375 6.29875 2.6875 5.9375 C-0.04759379 4.67639116 -0.04759379 4.67639116 -3 6 C-3 5.34 -3 4.68 -3 4 C-3.66 3.67 -4.32 3.34 -5 3 C-3.35 2.01 -1.7 1.02 0 0 Z " fill="#2E5396" transform="translate(53,77)"/>
<path d="M0 0 C2.375 -0.125 2.375 -0.125 5 0 C7 2 7 2 7 6 C5.02 6 3.04 6 1 6 C1.99 5.67 2.98 5.34 4 5 C2.68 3.35 1.36 1.7 0 0 Z " fill="#325687" transform="translate(162,131)"/>
<path d="M0 0 C1.32 0 2.64 0 4 0 C4.33 0.99 4.66 1.98 5 3 C5.66 3.66 6.32 4.32 7 5 C6.01 5 5.02 5 4 5 C4 5.66 4 6.32 4 7 C2.02 6.34 0.04 5.68 -2 5 C-1.01 4.34 -0.02 3.68 1 3 C0.67 2.01 0.34 1.02 0 0 Z " fill="#79A0CC" transform="translate(124,137)"/>
<path d="M0 0 C2.0625 0.4375 2.0625 0.4375 4 1 C3.67 2.65 3.34 4.3 3 6 C2.01 6 1.02 6 0 6 C-0.38218767 4.34385343 -0.71395102 2.67542976 -1 1 C-0.67 0.67 -0.34 0.34 0 0 Z " fill="#3D988B" transform="translate(104,124)"/>
<path d="M0 0 C0.99 0 1.98 0 3 0 C3 0.99 3 1.98 3 3 C3.99 3.33 4.98 3.66 6 4 C5.67 4.66 5.34 5.32 5 6 C1.37 5.67 -2.26 5.34 -6 5 C-6 4.67 -6 4.34 -6 4 C-4.02 3.67 -2.04 3.34 0 3 C0 2.01 0 1.02 0 0 Z " fill="#A9D2E9" transform="translate(80,80)"/>
<path d="M0 0 C1.76462683 3.08809695 2 4.23312136 2 8 C0.35 8 -1.3 8 -3 8 C-1.125 2.25 -1.125 2.25 0 0 Z " fill="#3E6199" transform="translate(83,72)"/>
<path d="M0 0 C1.90389849 2.85584773 2.69462177 4.9311762 3.625 8.1875 C4.01558594 9.53908203 4.01558594 9.53908203 4.4140625 10.91796875 C4.60742188 11.60503906 4.80078125 12.29210938 5 13 C4.01 13.33 3.02 13.66 2 14 C2 12.35 2 10.7 2 9 C1.34 8.67 0.68 8.34 0 8 C0 5.36 0 2.72 0 0 Z " fill="#D6ECFC" transform="translate(0,34)"/>
<path d="M0 0 C0.99 0.33 1.98 0.66 3 1 C3.33 3.31 3.66 5.62 4 8 C3.01 8.495 3.01 8.495 2 9 C1.34 8.67 0.68 8.34 0 8 C0 5.36 0 2.72 0 0 Z " fill="#A7CEEF" transform="translate(182,133)"/>
<path d="M0 0 C0.66 0.66 1.32 1.32 2 2 C1.625 4.625 1.625 4.625 1 7 C-0.98 7.33 -2.96 7.66 -5 8 C-3.35 5.36 -1.7 2.72 0 0 Z " fill="#A0DED8" transform="translate(156,102)"/>
<path d="M0 0 C0 0.66 0 1.32 0 2 C-1.258125 2.04125 -2.51625 2.0825 -3.8125 2.125 C-4.52019531 2.14820312 -5.22789063 2.17140625 -5.95703125 2.1953125 C-8 2 -8 2 -11 0 C-7.18243176 -1.37432457 -3.92744671 -0.67975039 0 0 Z " fill="#3456B0" transform="translate(80,75)"/>
<path d="M0 0 C4.875 4.625 4.875 4.625 6 8 C5.34 8.66 4.68 9.32 4 10 C3.54625 9.360625 3.0925 8.72125 2.625 8.0625 C1.16078274 5.90297594 1.16078274 5.90297594 -1 5 C-0.67 3.35 -0.34 1.7 0 0 Z " fill="#CEE9E5" transform="translate(190,178)"/>
<path d="M0 0 C0.33 0 0.66 0 1 0 C1 2.31 1 4.62 1 7 C0.34 7 -0.32 7 -1 7 C-1 6.34 -1 5.68 -1 5 C-2.98 5 -4.96 5 -7 5 C-7.33 4.34 -7.66 3.68 -8 3 C-5.36 3 -2.72 3 0 3 C0 2.01 0 1.02 0 0 Z " fill="#93BFF0" transform="translate(204,134)"/>
<path d="M0 0 C0.66 0 1.32 0 2 0 C1.67 2.31 1.34 4.62 1 7 C0.01 7.33 -0.98 7.66 -2 8 C-2.125 5.125 -2.125 5.125 -2 2 C-1.34 1.34 -0.68 0.68 0 0 Z " fill="#32558D" transform="translate(147,129)"/>
<path d="M0 0 C0.66 0.33 1.32 0.66 2 1 C0.02 5.455 0.02 5.455 -2 10 C-2.66 9.67 -3.32 9.34 -4 9 C-3.46930939 5.17902761 -2.50298434 2.93828597 0 0 Z " fill="#395988" transform="translate(71,130)"/>
<path d="M0 0 C2.1875 0.3125 2.1875 0.3125 4 1 C2.02 3.97 2.02 3.97 0 7 C-2 6 -2 6 -3 3 C-1.75 1.4375 -1.75 1.4375 0 0 Z " fill="#4B5E92" transform="translate(36,128)"/>
<path d="M0 0 C0.66 0 1.32 0 2 0 C2.33 1.98 2.66 3.96 3 6 C1.68 6.33 0.36 6.66 -1 7 C-1.04254356 5.00045254 -1.04080783 2.99958364 -1 1 C-0.67 0.67 -0.34 0.34 0 0 Z " fill="#3E568E" transform="translate(91,132)"/>
<path d="M0 0 C4.95 0 9.9 0 15 0 C15 0.33 15 0.66 15 1 C12.69 1 10.38 1 8 1 C7.67 1.99 7.34 2.98 7 4 C4.69 3.01 2.38 2.02 0 1 C0 0.67 0 0.34 0 0 Z " fill="#A7CEEF" transform="translate(114,130)"/>
<path d="M0 0 C0.33 0 0.66 0 1 0 C1 1.98 1 3.96 1 6 C3.64 6 6.28 6 9 6 C5.5980513 8.09350689 2.94727588 8.17942163 -1 8 C-0.67 5.36 -0.34 2.72 0 0 Z " fill="#429D8F" transform="translate(115,112)"/>
<path d="M0 0 C1.32 0 2.64 0 4 0 C4.33 2.31 4.66 4.62 5 7 C4.01 7.495 4.01 7.495 3 8 C0 3.375 0 3.375 0 0 Z " fill="#3C9789" transform="translate(105,70)"/>
<path d="M0 0 C1.32 0.66 2.64 1.32 4 2 C2.68 2.33 1.36 2.66 0 3 C0 4.65 0 6.3 0 8 C-0.66 8 -1.32 8 -2 8 C-2.125 5.125 -2.125 5.125 -2 2 C-1.34 1.34 -0.68 0.68 0 0 Z " fill="#E7F9F6" transform="translate(78,126)"/>
<path d="M0 0 C0.66 1.32 1.32 2.64 2 4 C-1.01031744 4.93423645 -1.86650268 5.04449911 -5 4 C-5 3.34 -5 2.68 -5 2 C-3.35 1.34 -1.7 0.68 0 0 Z " fill="#93D4BE" transform="translate(216,139)"/>
<path d="M0 0 C0.99 0 1.98 0 3 0 C3 1.32 3 2.64 3 4 C3.99 4 4.98 4 6 4 C6 4.66 6 5.32 6 6 C4.33388095 6.042721 2.66617115 6.04063832 1 6 C0 5 0 5 -0.0625 2.4375 C-0.041875 1.633125 -0.02125 0.82875 0 0 Z " fill="#2E5381" transform="translate(185,135)"/>
<path d="M0 0 C1.32 0 2.64 0 4 0 C3.67 1.65 3.34 3.3 3 5 C2.01 5 1.02 5 0 5 C-0.5625 3.0625 -0.5625 3.0625 -1 1 C-0.67 0.67 -0.34 0.34 0 0 Z " fill="#BAD8F0" transform="translate(94,134)"/>
<path d="M0 0 C0.33 0 0.66 0 1 0 C1 4.29 1 8.58 1 13 C0.01 13 -0.98 13 -2 13 C-1.34 8.71 -0.68 4.42 0 0 Z " fill="#364D86" transform="translate(74,128)"/>
<path d="M0 0 C1.32 1.32 2.64 2.64 4 4 C3.67 4.66 3.34 5.32 3 6 C0.69 5.34 -1.62 4.68 -4 4 C-3.67 3.34 -3.34 2.68 -3 2 C-2.01 2 -1.02 2 0 2 C0 1.34 0 0.68 0 0 Z " fill="#6981B1" transform="translate(85,131)"/>
<path d="M0 0 C0 0.66 0 1.32 0 2 C-3.28696233 2.79953138 -4.71023192 3.09658936 -8 2 C-8 1.34 -8 0.68 -8 0 C-2.25 -1.125 -2.25 -1.125 0 0 Z " fill="#C5E2F2" transform="translate(53,131)"/>
<path d="M0 0 C0.33 1.32 0.66 2.64 1 4 C0.01 4 -0.98 4 -2 4 C-2 4.66 -2 5.32 -2 6 C-3.32 6 -4.64 6 -6 6 C-6 5.34 -6 4.68 -6 4 C-6.66 3.67 -7.32 3.34 -8 3 C-5.36 3 -2.72 3 0 3 C0 2.01 0 1.02 0 0 Z " fill="#476C94" transform="translate(96,111)"/>
<path d="M0 0 C1.74627478 2.61941217 2.38722388 4.03824877 3 7 C2.01 7.33 1.02 7.66 0 8 C-1.0625 6.1875 -1.0625 6.1875 -2 4 C-1 1 -1 1 0 0 Z " fill="#CEE0F2" transform="translate(29,99)"/>
<path d="M0 0 C0.33 0.66 0.66 1.32 1 2 C2.98 2 4.96 2 7 2 C7 2.33 7 2.66 7 3 C5.35 3 3.7 3 2 3 C1.67 3.66 1.34 4.32 1 5 C-1 5 -1 5 -4 4 C-3.67 3.34 -3.34 2.68 -3 2 C-2.01 2 -1.02 2 0 2 C0 1.34 0 0.68 0 0 Z " fill="#8CC1C9" transform="translate(202,139)"/>
<path d="M0 0 C0.99 0.33 1.98 0.66 3 1 C2.67 2.32 2.34 3.64 2 5 C0.68 5 -0.64 5 -2 5 C-2.33 4.34 -2.66 3.68 -3 3 C-2.34 2.67 -1.68 2.34 -1 2 C-0.67 1.34 -0.34 0.68 0 0 Z " fill="#D1EAF4" transform="translate(89,128)"/>
<path d="M0 0 C0.99 0 1.98 0 3 0 C3 0.99 3 1.98 3 3 C2.34 3 1.68 3 1 3 C1 4.65 1 6.3 1 8 C0.34 7.67 -0.32 7.34 -1 7 C-1.04254356 5.00045254 -1.04080783 2.99958364 -1 1 C-0.67 0.67 -0.34 0.34 0 0 Z " fill="#AFD7E6" transform="translate(87,108)"/>
<path d="M0 0 C2.72426311 2.35277269 3.8141763 4.62496331 5 8 C2.525 7.01 2.525 7.01 0 6 C0 4.02 0 2.04 0 0 Z " fill="#BFE4DE" transform="translate(217,213)"/>
<path d="M0 0 C0.99 0 1.98 0 3 0 C3 1.98 3 3.96 3 6 C2.01 6 1.02 6 0 6 C0 4.02 0 2.04 0 0 Z " fill="#B1D7F7" transform="translate(175,134)"/>
<path d="M0 0 C2.31 0 4.62 0 7 0 C7 0.99 7 1.98 7 3 C4.69 2.67 2.38 2.34 0 2 C0 1.34 0 0.68 0 0 Z " fill="#385482" transform="translate(44,128)"/>
<path d="M0 0 C0.99 0.33 1.98 0.66 3 1 C-1.39453125 5.00390625 -1.39453125 5.00390625 -3 6 C-3.99 5.67 -4.98 5.34 -6 5 C-2.25 2 -2.25 2 0 2 C0 1.34 0 0.68 0 0 Z " fill="#2B9483" transform="translate(150,107)"/>
<path d="M0 0 C0.66 0.33 1.32 0.66 2 1 C1.25 6.75 1.25 6.75 -1 9 C-1.09765625 2.84765625 -1.09765625 2.84765625 -1 1 C-0.67 0.67 -0.34 0.34 0 0 Z " fill="#365994" transform="translate(81,102)"/>
<path d="M0 0 C1.485 0.99 1.485 0.99 3 2 C2.67 4.31 2.34 6.62 2 9 C0.05276405 6.07914607 -0.55175352 4.40667322 -1 1 C-0.67 0.67 -0.34 0.34 0 0 Z " fill="#A7E8E3" transform="translate(105,74)"/>
<path d="M0 0 C0 0.66 0 1.32 0 2 C0.66 2.33 1.32 2.66 2 3 C-0.31 3.33 -2.62 3.66 -5 4 C-5 3.01 -5 2.02 -5 1 C-3 0 -3 0 0 0 Z " fill="#ADDADC" transform="translate(80,79)"/>
<path d="M0 0 C0.99 0.495 0.99 0.495 2 1 C2 1.66 2 2.32 2 3 C3.32 3.33 4.64 3.66 6 4 C6 4.66 6 5.32 6 6 C3.83125748 5.49396008 2.00032373 5.00016187 0 4 C0 2.68 0 1.36 0 0 Z " fill="#E1F3FC" transform="translate(64,137)"/>
<path d="M0 0 C0.99 0.33 1.98 0.66 3 1 C3 1.66 3 2.32 3 3 C1.02 3.33 -0.96 3.66 -3 4 C-2.67 3.01 -2.34 2.02 -2 1 C-1.34 0.67 -0.68 0.34 0 0 Z " fill="#416593" transform="translate(165,138)"/>
<path d="M0 0 C0.99 0.33 1.98 0.66 3 1 C2.67 1.99 2.34 2.98 2 4 C0.35 4 -1.3 4 -3 4 C-3 3.34 -3 2.68 -3 2 C-2.01 1.34 -1.02 0.68 0 0 Z " fill="#375B8C" transform="translate(154,137)"/>
<path d="M0 0 C0.33 0.99 0.66 1.98 1 3 C3.01508358 3.73323796 3.01508358 3.73323796 5 4 C5 4.66 5 5.32 5 6 C3.35 6 1.7 6 0 6 C0 4.02 0 2.04 0 0 Z " fill="#375487" transform="translate(16,132)"/>
<path d="M0 0 C2.0625 2.3125 2.0625 2.3125 4 5 C3.67 5.99 3.34 6.98 3 8 C2.01 7.67 1.02 7.34 0 7 C0 4.69 0 2.38 0 0 Z " fill="#3C5AB1" transform="translate(80,96)"/>
<path d="M0 0 C0.66 0.33 1.32 0.66 2 1 C1.42415568 3.38564077 0.77772405 5.66682784 0 8 C-0.66 8 -1.32 8 -2 8 C-1.125 2.25 -1.125 2.25 0 0 Z " fill="#9EDED5" transform="translate(108,78)"/>
</svg>
