<?xml version="1.0" standalone="no"?>
<!DOCTYPE svg PUBLIC "-//W3C//DTD SVG 20010904//EN"
 "http://www.w3.org/TR/2001/REC-SVG-20010904/DTD/svg10.dtd">
<svg version="1.0" xmlns="http://www.w3.org/2000/svg"
 width="1058.000000pt" height="560.000000pt" viewBox="0 0 1058.000000 560.000000"
 preserveAspectRatio="xMidYMid meet">

<g transform="translate(0.000000,560.000000) scale(0.100000,-0.100000)"
fill="#000000" stroke="none">
<path d="M1186 5553 c-3 -10 -48 -243 -101 -518 -53 -275 -118 -615 -145 -755
-194 -1007 -440 -2292 -440 -2300 0 -7 1590 -10 4683 -10 l4682 0 44 227 c24
126 88 458 141 738 54 281 189 980 299 1555 111 575 201 1053 201 1063 0 16
-239 17 -4679 17 -4448 0 -4680 -1 -4685 -17z m1981 -373 c167 -27 257 -80
307 -182 50 -100 33 -150 -91 -279 -98 -103 -151 -134 -208 -123 -53 10 -60
25 -44 92 18 73 15 95 -23 150 -63 92 -187 142 -352 142 -134 0 -222 -20 -331
-74 -202 -100 -300 -271 -251 -438 61 -210 262 -368 751 -589 153 -69 211
-105 273 -173 98 -106 151 -220 160 -341 6 -93 -11 -168 -60 -268 -34 -68 -60
-100 -147 -187 -221 -220 -555 -397 -893 -472 -137 -30 -397 -32 -528 -4 -323
70 -521 214 -546 399 -6 40 -4 45 29 72 19 17 85 78 146 138 90 86 118 107
141 107 23 0 31 -5 34 -22 30 -157 59 -220 141 -304 135 -137 365 -200 642
-174 192 17 310 57 400 135 82 70 153 264 156 425 2 75 -1 92 -26 142 -48 99
-161 194 -319 271 -51 24 -149 72 -218 105 -211 103 -385 230 -480 354 -36 47
-70 133 -76 194 -25 238 229 574 562 746 156 81 321 138 450 157 84 12 328 13
401 1z m6270 -9 c115 -24 184 -60 227 -120 50 -69 58 -89 58 -143 0 -61 -21
-94 -134 -209 -94 -97 -133 -116 -200 -98 -33 8 -38 14 -38 39 0 16 5 50 12
74 10 38 9 50 -6 84 -36 79 -135 149 -246 173 -31 7 -101 9 -169 7 -145 -6
-246 -37 -354 -107 -213 -140 -258 -348 -118 -548 56 -79 120 -137 235 -212
87 -56 309 -171 486 -251 151 -68 225 -128 307 -249 108 -160 114 -366 16
-533 -131 -222 -476 -466 -828 -584 -145 -48 -271 -73 -405 -81 -441 -23 -869
184 -870 423 0 41 4 45 141 175 119 113 146 134 172 134 30 0 31 -2 44 -65 16
-81 28 -112 68 -175 94 -146 252 -231 477 -255 188 -20 434 14 549 77 147 79
230 253 233 483 1 122 -12 157 -92 242 -66 71 -150 123 -392 241 -118 58 -258
133 -310 168 -127 83 -237 195 -281 284 -32 65 -34 76 -34 170 0 90 3 107 31
172 98 224 321 441 582 564 112 53 267 105 368 123 120 22 359 20 471 -3z
m-3283 -30 c415 -74 653 -256 713 -546 35 -170 -26 -391 -152 -554 -232 -301
-649 -471 -1280 -522 -77 -6 -156 -14 -175 -18 l-34 -7 -28 -129 c-57 -273
-83 -549 -59 -634 8 -31 119 -117 168 -130 21 -6 81 -14 133 -18 80 -5 98 -10
117 -29 27 -27 30 -49 8 -58 -23 -8 -1502 -10 -1557 -1 -50 8 -57 18 -35 50
12 15 31 18 113 21 175 5 308 57 410 158 70 70 100 123 143 257 129 398 401
1668 401 1876 0 60 -24 73 -170 91 -128 16 -180 10 -293 -34 -50 -20 -70 -15
-91 20 -30 48 127 114 380 161 303 56 544 75 904 70 214 -3 288 -7 384 -24z"/>
<path d="M5626 4965 c-21 -7 -45 -20 -53 -28 -12 -12 -303 -1166 -303 -1203 0
-29 54 -37 271 -42 242 -5 320 5 431 56 226 104 378 352 381 622 1 109 -16
179 -69 280 -90 172 -234 269 -452 304 -148 24 -166 25 -206 11z"/>
<path d="M6246 1704 c-35 -36 -87 -117 -419 -664 -265 -434 -287 -468 -340
-508 -32 -24 -55 -47 -52 -52 7 -12 298 -11 315 1 11 7 11 12 3 15 -6 3 -32
19 -58 36 -44 29 -47 34 -42 65 8 45 123 256 164 300 l32 34 251 -3 c227 -3
253 -5 265 -21 12 -17 49 -179 61 -269 8 -57 -17 -98 -78 -129 -22 -11 -37
-23 -34 -26 6 -7 336 -12 354 -5 20 7 14 18 -29 47 -22 16 -44 36 -50 46 -10
20 -204 793 -249 992 -16 73 -32 141 -36 150 -9 24 -27 21 -58 -9z m-20 -230
c19 -46 104 -395 104 -428 0 -18 -7 -27 -23 -31 -33 -9 -394 -2 -403 8 -11 11
14 58 112 214 133 212 175 273 185 273 6 0 17 -16 25 -36z"/>
<path d="M653 1706 c-126 -40 -202 -138 -203 -261 0 -33 5 -77 10 -97 16 -54
95 -168 202 -288 162 -182 176 -200 197 -245 56 -120 -9 -260 -138 -299 -162
-48 -324 13 -380 143 -25 58 -34 66 -51 46 -17 -21 -6 -133 18 -189 17 -37 25
-44 68 -57 71 -20 272 -18 349 5 178 53 266 158 267 319 1 113 -41 182 -234
388 -131 140 -142 154 -173 221 -75 162 37 313 206 277 100 -22 185 -103 215
-206 8 -29 20 -56 26 -59 21 -13 28 24 28 147 l0 127 -57 -1 c-33 0 -88 9
-128 21 -78 25 -159 27 -222 8z"/>
<path d="M1878 1715 c-2 -3 -94 -7 -204 -9 -121 -3 -200 -9 -202 -15 -2 -5 10
-17 26 -25 17 -9 41 -36 55 -61 23 -41 25 -51 17 -98 -28 -170 -173 -896 -185
-923 -7 -18 -24 -39 -37 -47 -12 -8 -37 -23 -55 -33 -55 -33 -30 -45 75 -35
51 4 133 4 183 0 65 -6 97 -5 113 3 19 11 16 14 -42 40 -52 24 -66 35 -79 65
-14 35 -13 48 22 232 20 108 46 216 57 240 l21 43 76 -7 c42 -4 81 -12 88 -18
6 -7 41 -115 78 -242 75 -260 96 -311 144 -342 56 -38 221 -29 221 12 0 9 -9
15 -25 15 -36 0 -80 25 -103 57 -17 25 -161 444 -176 516 -5 21 -2 29 11 33
10 3 50 21 90 40 122 58 198 163 210 287 13 147 -78 246 -242 262 -33 3 -76 8
-96 10 -20 3 -38 3 -41 0z m126 -70 c80 -34 111 -92 111 -205 -1 -139 -57
-227 -170 -269 -72 -27 -274 -31 -295 -6 -10 13 -6 50 24 203 44 220 50 244
77 268 38 34 181 39 253 9z"/>
<path d="M4897 1713 c-2 -1 -93 -5 -203 -8 -109 -2 -202 -4 -206 -5 -19 0 -5
-19 23 -30 32 -14 79 -91 79 -132 0 -12 -36 -204 -79 -427 -44 -224 -83 -424
-87 -446 -14 -80 -32 -109 -89 -144 -86 -52 -75 -64 51 -52 49 4 131 4 183 -1
75 -7 98 -6 108 5 11 11 5 17 -38 37 -61 29 -89 62 -89 104 0 17 16 119 36
227 29 150 42 202 59 223 22 28 24 28 92 21 38 -4 75 -10 82 -15 8 -4 45 -115
83 -246 38 -132 79 -259 91 -284 28 -58 71 -80 153 -80 107 0 165 37 80 51
-39 6 -80 38 -101 79 -22 42 -166 491 -163 507 2 8 30 26 63 39 129 52 226
162 245 278 23 145 -43 246 -185 280 -56 13 -181 26 -188 19z m122 -69 c80
-33 114 -95 114 -205 -1 -123 -47 -204 -148 -257 -47 -25 -58 -27 -185 -27
l-135 0 -3 26 c-4 35 66 397 84 431 8 15 20 30 26 35 41 25 184 23 247 -3z"/>
<path d="M7305 1706 c-60 -19 -96 -41 -132 -78 -108 -114 -103 -266 16 -423
21 -27 96 -115 166 -195 131 -149 175 -219 175 -280 0 -99 -65 -186 -159 -214
-162 -48 -319 11 -380 143 -25 52 -40 61 -60 38 -22 -28 19 -200 53 -222 41
-27 185 -40 291 -27 245 31 369 147 368 342 -1 103 -45 177 -214 356 -135 143
-184 206 -204 263 -56 158 56 294 213 260 102 -21 188 -103 218 -206 8 -29 20
-56 26 -59 21 -13 28 24 28 149 l0 129 -38 -7 c-27 -4 -64 2 -126 19 -96 28
-177 32 -241 12z"/>
<path d="M2664 1701 c-11 -11 -1 -20 39 -36 66 -26 87 -51 87 -104 0 -68 -175
-954 -195 -988 -9 -16 -39 -41 -66 -57 -27 -15 -47 -32 -44 -37 8 -11 392 -12
399 -1 3 5 -17 19 -44 32 -61 29 -79 48 -86 91 -7 43 169 949 194 999 11 23
33 44 63 60 26 14 46 29 45 34 -1 9 -383 15 -392 7z"/>
<path d="M3366 1695 c-13 -8 -7 -15 36 -35 29 -14 59 -37 67 -52 19 -33 14
-63 -98 -632 -58 -295 -83 -402 -97 -417 -11 -12 -41 -32 -68 -46 -33 -17 -45
-28 -38 -35 13 -13 392 -14 416 -1 14 8 4 14 -51 36 -39 16 -74 36 -82 49 -22
35 -15 106 27 288 l38 165 104 12 c180 20 230 31 285 58 133 65 224 197 233
340 8 126 -38 210 -140 256 -52 23 -60 24 -335 24 -170 0 -288 -4 -297 -10z
m514 -73 c87 -43 128 -125 116 -232 -13 -110 -86 -219 -176 -265 -52 -26 -136
-44 -177 -38 -62 9 -113 26 -113 37 0 25 91 462 101 488 6 15 23 32 38 37 43
17 150 4 211 -27z"/>
<path d="M8103 1697 c-6 -10 -7 -10 47 -37 68 -34 80 -48 80 -95 0 -41 -160
-883 -181 -954 -15 -50 -26 -63 -86 -96 -28 -16 -49 -33 -47 -37 7 -11 401
-10 408 0 3 5 -18 20 -45 33 -61 28 -89 61 -89 102 0 50 180 958 196 989 8 15
37 41 64 56 27 15 48 31 47 36 -4 11 -387 14 -394 3z"/>
<path d="M8800 1695 c-15 -20 -82 -190 -84 -214 -2 -39 21 -35 43 7 59 115
108 137 308 137 113 0 145 -3 157 -15 12 -13 2 -77 -80 -504 -52 -268 -101
-503 -109 -522 -9 -23 -30 -42 -70 -65 -31 -17 -54 -36 -53 -41 3 -8 302 -14
396 -9 27 2 9 22 -45 48 -70 34 -86 60 -78 130 7 74 173 913 186 945 15 36 51
42 189 35 108 -5 164 -20 188 -50 8 -9 17 -41 21 -71 8 -60 17 -78 30 -58 8
13 33 243 27 249 -9 9 -1018 7 -1026 -2z"/>
<path d="M125 228 c-14 -37 -55 -183 -55 -195 0 -11 801 -13 4682 -11 l4682 3
27 90 c15 50 28 98 28 108 1 16 -228 17 -4679 17 -3735 0 -4682 -3 -4685 -12z"/>
</g>
</svg>
